<svg xmlns="http://www.w3.org/2000/svg"
shape-rendering="geometricPrecision"
width="4000" height="4000" viewBox="0 0 765 765"><rect width="100%" height="100%" fill="#D9E6FD" />
  <metadata>null</metadata>

<path d="
M 33.97 528.115
C 34.626 522.247 35.386 516.777 38.046 511.396
C 43.718 499.924 55.753 492.878 68.452 492.726
C 78.316 492.608 87.655 495.849 94.76 502.819
C 96.342 504.371 97.807 506.044 99.042 507.888
C 99.323 508.308 100.265 509.255 100.232 509.756
C 97.904 511.41 95.747 513.192 93.5 514.929
C 89.477 510.34 85.863 506.078 80.149 503.514
C 76.716 501.972 72.906 501.291 69.155 501.354
C 63.558 501.449 57.812 503.192 53.334 506.606
C 40.791 516.17 39.821 537.653 50.326 549.03
C 53.856 552.853 58.979 555.314 64.059 556.219
C 67.919 556.906 72.026 556.804 75.83 555.834
C 81.181 554.47 85.608 551.732 89.558 547.927
C 91.113 546.43 92.299 543.932 94.064 542.789
C 96.443 544.215 98.659 546.207 101.324 547.107
C 91.674 565.067 65.023 570.413 48.571 559.178
C 38.558 552.341 33.341 540.096 33.97 528.115 Z"
opacity="1" fill="rgb(0,0,2)" fill-rule="evenodd" />
<path d="
M 106.433 534.095
C 109.183 515.634 131.629 507.519 146.46 517.896
C 154.706 523.666 157.58 534.285 156.185 543.852
C 155.443 548.938 153.273 553.839 149.634 557.535
C 140.751 566.56 123.983 567.247 114.355 558.989
C 107.195 552.848 105.09 543.115 106.433 534.095 Z
M 114.902 536.096
C 114.165 542.207 115.478 548.822 120.174 553.119
C 125.824 558.289 135.448 558.595 141.425 553.786
C 145.053 550.867 147.128 546.466 147.779 541.921
C 148.704 535.463 146.731 528.292 141.392 524.225
C 130.97 516.287 116.402 523.648 114.902 536.096 Z"
opacity="1" fill="rgb(0,0,2)" fill-rule="evenodd" />
<path d="
M 131.366 603.077
C 131.414 602.836 131.461 602.594 131.508 602.353
C 135.173 602.241 138.843 602.305 142.513 602.29
C 143.93 602.284 146.187 601.841 147.448 602.47
C 147.384 603.452 147.382 604.429 147.303 605.412
C 143.293 605.893 139.111 604.92 135.089 605.55
C 134.864 607.473 134.846 609.392 134.901 611.328
C 134.92 612.006 134.752 613.25 135.231 613.763
C 138.512 613.685 142.165 613.424 145.413 613.831
C 145.384 614.509 145.719 616.106 145.349 616.669
C 141.972 616.773 138.591 616.477 135.213 616.663
C 134.737 620.209 134.904 624.223 135.167 627.794
C 133.956 627.658 132.613 627.713 131.401 627.823
C 131.099 627.45 131.235 626.584 131.23 626.097
C 131.214 624.481 131.241 622.862 131.247 621.246
C 131.27 615.253 130.819 609.044 131.366 603.077 Z"
opacity="1" fill="rgb(10,12,12)" fill-rule="evenodd" />
<path d="
M 151.034 627.129
C 151.586 621.21 150.786 615.175 151.192 609.243
C 152.259 609.196 153.494 608.939 154.518 609.29
C 154.64 613.348 154.654 617.426 154.621 621.495
C 154.605 623.435 154.218 625.856 154.655 627.745
C 153.486 627.521 152.162 628.01 151.019 627.582
C 151.024 627.431 151.029 627.28 151.034 627.129 Z"
opacity="1" fill="rgb(15,15,16)" fill-rule="evenodd" />
<path d="
M 151.296 602.303
C 152.363 601.801 153.555 602.035 154.693 602.166
C 154.889 603.373 154.7 604.571 154.713 605.781
C 153.689 605.812 152.299 606.053 151.338 605.676
C 151.174 604.55 151.216 603.435 151.296 602.303 Z"
opacity="1" fill="rgb(23,26,26)" fill-rule="evenodd" />
<path d="
M 160.224 609.232
C 161.426 609.184 162.611 609.163 163.812 609.141
C 163.858 609.974 163.824 610.815 163.844 611.651
C 163.922 612.028 164.615 611.186 164.782 611.008
C 165.444 610.299 166.165 609.611 167.071 609.222
C 169.254 608.285 172.629 608.415 174.468 610.014
C 176.342 611.645 176.402 613.954 176.414 616.262
C 176.433 620.078 176.189 623.893 176.371 627.709
C 175.213 627.702 174.041 627.749 172.887 627.833
C 172.416 627.144 172.835 625.082 172.839 624.213
C 172.848 621.783 172.935 619.352 172.895 616.922
C 172.878 615.884 172.985 614.627 172.471 613.69
C 170.78 610.603 166.037 610.802 164.425 613.905
C 163.675 615.349 163.801 617.101 163.786 618.675
C 163.756 621.721 163.814 624.763 163.914 627.802
C 162.803 627.793 161.314 628.089 160.274 627.702
C 160.262 621.546 160.28 615.388 160.224 609.232 Z"
opacity="1" fill="rgb(11,11,12)" fill-rule="evenodd" />
<path d="
M 165.692 514.239
C 168.277 514.3 170.877 514.075 173.463 514.184
C 173.571 516.308 173.759 518.451 173.877 520.586
C 174.951 519.92 175.742 518.789 176.715 517.966
C 178.759 516.237 181.076 514.831 183.636 514.006
C 185.977 513.251 188.531 513.103 190.973 513.217
C 193.094 513.317 195.149 513.657 197.15 514.382
C 209.93 519.016 207.439 534.712 207.384 545.507
C 207.362 549.84 207.378 554.174 207.378 558.507
C 207.378 559.777 207.882 562.396 207.24 563.494
C 204.602 563.662 201.96 563.432 199.325 563.535
C 198.498 561.239 199.112 557.894 199.112 555.462
C 199.111 549.46 199.043 543.459 199.114 537.457
C 199.168 532.847 199.492 528.099 196.665 524.163
C 195.372 522.364 193.247 521.6 191.195 521.075
C 185.088 519.512 178.525 522.546 175.501 527.942
C 173.626 531.287 174.107 535.291 174.052 538.996
C 173.97 544.493 173.876 549.999 173.888 555.506
C 173.893 558.108 173.579 560.987 174.021 563.55
C 173.433 563.87 172.354 563.611 171.687 563.619
C 169.727 563.644 167.759 563.476 165.804 563.535
C 165.288 561.924 165.572 559.923 165.59 558.246
C 165.628 554.833 165.663 551.421 165.667 548.008
C 165.68 536.751 165.651 525.494 165.692 514.239 Z"
opacity="1" fill="rgb(1,0,2)" fill-rule="evenodd" />
<path d="
M 180.981 616.6
C 181.855 611.891 185.746 606.644 191.256 608.833
C 192.745 609.424 193.646 610.495 194.772 611.575
C 195.199 608.511 194.882 604.871 194.686 601.77
C 195.856 601.767 197.023 601.817 198.191 601.805
C 198.537 602.433 198.377 603.496 198.358 604.188
C 198.311 605.957 198.276 607.724 198.264 609.493
C 198.221 615.596 198.025 621.788 198.373 627.881
C 197.25 627.759 195.992 627.742 194.888 627.972
C 194.933 627.637 195.077 626.551 194.86 626.283
C 194.63 625.999 191.929 627.79 191.58 627.945
C 189.909 628.688 187.468 628.542 185.779 627.901
C 181.384 626.232 180.479 620.676 180.981 616.6 Z
M 184.838 616.059
C 184.275 618.739 184.143 622.634 186.327 624.635
C 188.69 626.801 193.884 626.12 194.616 622.626
C 195.122 620.211 195.512 615.512 193.866 613.485
C 190.776 609.678 185.775 611.602 184.838 616.059 Z"
opacity="1" fill="rgb(7,8,9)" fill-rule="evenodd" />
<path d="
M 210.499 609.244
C 211.787 609.201 213.028 609.036 214.312 609.196
C 215.897 613.154 216.927 617.315 218.444 621.301
C 218.776 622.174 219.062 624.663 219.811 625.103
C 220.739 624.535 221.033 622.01 221.396 620.959
C 222.739 617.074 224.352 613.191 225.236 609.166
C 226.321 609.218 227.965 608.811 228.946 609.352
C 227.486 615.042 224.936 620.632 222.856 626.126
C 221.856 628.765 221.457 631.944 219.772 634.266
C 218.155 636.494 214.917 637.022 212.347 636.387
C 212.149 635.51 212.026 634.674 212.195 633.782
C 215.168 633.77 218.205 633.288 218.215 629.491
C 218.22 627.754 216.471 625.454 215.871 623.788
C 214.138 618.973 212.611 613.898 210.499 609.244 Z"
opacity="1" fill="rgb(9,10,11)" fill-rule="evenodd" />
<path d="
M 215.561 514.114
C 217.981 514.009 220.417 514.034 222.838 514.152
C 223.125 506.319 222.631 498.263 229.964 493.248
C 231.213 492.394 232.649 491.715 234.089 491.25
C 235.999 490.633 238.027 490.453 240.022 490.387
C 241.921 490.324 245.785 489.913 247.413 490.962
C 247.459 492.81 247.517 494.661 247.543 496.509
C 247.548 496.862 247.679 498.268 247.429 498.381
C 241.392 497.761 233.68 497.177 231.878 504.673
C 231.127 507.796 231.513 511.051 231.21 514.213
C 236.07 514.94 241.759 514.074 246.661 513.8
C 246.953 514.399 246.744 515.336 246.73 515.995
C 246.691 517.822 246.443 519.918 246.735 521.719
C 243.22 521.369 239.538 521.635 236.003 521.632
C 234.673 521.63 232.586 521.229 231.396 521.804
C 231.023 530.178 231.317 538.621 231.346 547.002
C 231.364 552.432 230.895 558.11 231.456 563.509
C 231.215 563.851 229.903 563.599 229.502 563.6
C 227.252 563.602 224.99 563.517 222.742 563.594
C 223.37 553.821 222.756 543.805 222.759 534.007
C 222.759 531.235 222.743 528.463 222.774 525.691
C 222.787 524.535 223.133 522.853 222.683 521.771
C 220.83 521.766 217.235 522.452 215.626 521.572
C 215.659 519.1 215.693 516.582 215.561 514.114 Z"
opacity="1" fill="rgb(2,2,3)" fill-rule="evenodd" />
<path d="
M 230.984 618.614
C 231.013 615.859 231.736 613.234 233.69 611.207
C 237.166 607.603 244.128 607.949 247.31 611.78
C 249.028 613.849 249.493 616.664 249.468 619.28
C 249.449 621.299 249.062 623.42 247.796 625.051
C 244.583 629.188 237.399 629.615 233.607 626.031
C 231.64 624.172 230.957 621.22 230.984 618.614 Z
M 234.888 615.562
C 234.193 618.185 234.196 622.128 236.26 624.159
C 239.618 627.462 244.687 625.503 245.752 621.206
C 246.426 618.487 245.921 614.66 243.648 612.786
C 240.547 610.23 235.926 611.64 234.888 615.562 Z"
opacity="1" fill="rgb(6,8,7)" fill-rule="evenodd" />
<path d="
M 252.797 277.493
C 253.018 276.779 254.175 275.611 252.943 275.7
C 252.405 275.893 252.029 276.309 251.48 276.452
C 250.866 276.503 250.369 276.509 249.801 276.25
C 250.05 275.351 251.076 273.157 249.032 273.826
C 248.224 274.554 247.512 276.368 248.047 277.417
C 249.261 278.094 250.468 278.242 251.757 278.634
C 252.138 278.982 252.522 279.254 252.457 279.809
C 250.561 281.196 246.799 279.347 245.961 277.416
C 245.878 276.151 247.545 273.053 248.379 272.013
C 248.746 271.556 249.186 270.938 249.783 270.896
C 250.856 272.165 252.118 273.014 253.521 273.896
C 253.974 274.181 254.3 274.888 254.854 274.724
C 255.048 274.086 255.063 273.424 255.056 272.762
C 254.64 271.746 253.21 270.598 252.127 270.354
C 251.574 270.229 250.838 270.494 250.361 270.15
C 249.93 269.838 251.242 268.86 251.43 268.729
C 254.298 268.423 255.973 270.369 258.221 271.746
C 258.82 272.248 259.558 272.629 260.065 273.234
C 260.661 273.946 260.725 274.876 261.38 275.578
C 263.028 277.342 265.275 279.672 267.278 281.013
C 268.087 281.555 269.028 281.657 269.874 282.111
C 269.973 282.731 269.373 283.095 269.042 283.571
C 268.305 284.63 267.082 286.32 267.285 287.602
C 268.533 288.506 270.262 289.185 271.66 289.884
C 273.389 290.512 273.873 292.348 276.04 291.492
C 276.338 291.141 276.378 290.885 276.328 290.426
C 275.432 289.681 272.962 288.822 274.015 287.407
C 275.934 286.963 278.709 289.379 278.387 291.314
C 275.784 294.32 272.925 292.87 269.949 291.532
C 268.365 290.819 266.705 291.945 267.412 289.295
C 266.776 288.037 264.978 289.278 263.968 288.509
C 263.444 287.514 263.36 287.036 264.122 286.17
C 264.985 285.851 266.074 285.777 266.935 286.136
C 267.346 286.114 267.59 285.924 267.791 285.56
C 267.147 284.591 267.37 283.07 266.58 282.425
C 264.77 282.836 264.631 281.891 263.722 280.461
C 262.177 279.788 262.312 278.569 261.225 277.511
C 260.28 276.913 259.155 276.768 258.252 276.072
C 257.567 274.913 259.614 273.105 257.511 272.85
C 256.482 273.732 255.836 275.026 255.352 276.275
C 254.641 277.434 253.729 279.435 252.797 277.493 Z"
opacity="0.996" fill="rgb(47,50,60)" fill-rule="evenodd" />
<path d="
M 260.98 283.01
C 260.326 282.994 260.022 283.35 259.418 283.561
C 258.645 283.386 257.907 281.149 257.417 280.401
C 256.098 280.23 253.769 281.975 253.527 283.206
C 254.148 284.013 255.106 284.035 255.997 284.414
C 256.987 284.834 257.463 286.016 258.451 286.383
C 259.169 286.649 259.69 286.542 260.316 287.065
C 260.639 288.36 257.767 289.623 256.953 290.453
C 253.94 293.524 250.41 296.752 247.858 300.188
C 248.037 300.759 248.257 301.114 248.708 301.52
C 250.361 301.396 251.451 299.611 252.469 298.495
C 254.643 296.113 257.185 293.925 259.267 291.502
C 260.057 290.582 260.394 289.399 261.551 288.865
C 262.783 289.005 264.118 290.809 265.026 291.619
C 266.898 292.025 268.058 293.092 269.536 294.225
C 269.999 295.064 268.415 296.568 268.219 297.433
C 267.826 297.664 267.552 297.94 267.237 298.269
C 265.999 298.882 264.988 300.278 264.024 301.254
C 261.784 303.523 259.702 305.953 257.696 308.43
C 255.713 310.879 253.49 312.982 250.834 310.115
C 250.359 309.602 249.953 309.06 249.589 308.464
C 249.451 306.603 252.016 304.877 253.208 303.638
C 255.647 301.103 257.862 298.339 260.357 295.859
C 261.417 294.806 262.898 294.345 263.97 293.321
C 264.213 291.329 261.372 291.403 260.376 292.369
C 257.094 295.554 254.085 299.31 250.98 302.701
C 250.023 303.747 248.81 305.834 247.242 305.628
C 247.014 304.405 247.538 303.608 247.833 302.48
C 247.133 301.688 246.118 301.098 245.738 300.085
C 246.549 298.197 248.204 296.969 249.65 295.58
C 251.269 294.025 252.694 292.287 254.29 290.716
C 255.185 289.835 256.452 289.017 257.016 287.875
C 256.885 287.446 255.745 286.923 255.343 286.642
C 253.975 285.683 252.807 284.66 251.687 283.424
C 251.377 282.474 251.748 281.811 252.42 281.143
C 253.402 280.376 254.577 280.092 255.564 279.377
C 256.404 278.769 257.231 277.492 258.386 277.928
C 259.063 278.79 259.099 279.929 259.748 280.784
C 260.408 280.835 260.859 280.715 261.452 281.076
C 261.532 281.76 260.936 282.259 260.98 283.01 Z
M 251.954 308.023
C 251.867 308.196 251.781 308.37 251.695 308.544
C 252.323 309.424 252.694 309.785 253.785 309.6
C 255.869 308.083 257.333 305.638 259.092 303.766
C 259.431 303.393 259.76 303.012 260.1 302.641
C 261.856 300.748 263.653 298.876 265.602 297.179
C 266.409 296.476 267.685 295.647 267.969 294.551
C 265.46 292.486 264.077 294.958 262.494 296.689
C 259.018 300.491 255.207 303.982 251.954 308.023 Z"
opacity="1" fill="rgb(47,51,58)" fill-rule="evenodd" />
<path d="
M 248.964 536.614
C 249.812 530.529 251.301 525.141 255.612 520.51
C 263.752 511.764 279.221 510.628 287.929 519.162
C 292.062 523.213 294.246 528.888 294.713 534.592
C 294.9 536.879 294.356 539.595 294.839 541.797
C 282.423 541.511 269.819 541.308 257.409 541.773
C 257.554 543.978 257.914 546.102 258.822 548.122
C 259.499 549.628 260.442 551.041 261.54 552.274
C 269.269 560.954 282.43 557.475 290.651 551.788
C 291.102 552.079 291.242 553.009 291.439 553.498
C 292.029 554.959 293.748 556.875 293.796 558.413
C 293.256 559.222 291.591 559.899 290.744 560.431
C 286.965 562.806 282.923 563.874 278.533 564.376
C 266.532 565.749 253.619 560.677 249.939 548.197
C 248.864 544.55 248.635 540.39 248.964 536.614 Z
M 257.957 532.082
C 257.733 533.056 257.48 534.008 257.737 534.984
C 267.423 535.32 277.203 535.524 286.905 535.266
C 287.168 533.97 286.717 532.292 286.387 531.03
C 284.674 524.479 278.585 520.206 271.865 520.593
C 264.751 521.002 260.302 525.731 257.957 532.082 Z"
opacity="1" fill="rgb(1,1,3)" fill-rule="evenodd" />
<path d="
M 251.48 276.452
C 252.029 276.309 252.405 275.893 252.943 275.7
C 254.175 275.611 253.018 276.779 252.797 277.493
C 252.518 276.936 251.987 276.749 251.48 276.452 Z"
opacity="1" fill="rgb(100,112,122)" fill-rule="evenodd" />
<path d="
M 251.891 329.407
C 252.873 328.494 257.144 328.574 256.814 330.697
C 255.325 331.007 253.486 330.449 251.958 330.423
C 251.636 329.842 251.704 330.174 251.891 329.407 Z"
opacity="0.996" fill="rgb(50,53,68)" fill-rule="evenodd" />
<path d="
M 252.272 241.067
C 253.019 239.18 255.099 237.456 256.39 235.878
C 258.155 233.723 259.924 231.591 261.724 229.467
C 262.846 228.142 263.958 226.26 265.517 225.405
C 266.646 224.786 268.215 225.101 269.454 225.092
C 272.144 225.072 274.834 225.025 277.524 225.011
C 283.196 224.98 288.882 224.923 294.56 224.885
C 296.854 224.87 300.399 224.299 302.508 225.358
C 304.524 226.372 305.918 229.074 307.416 230.699
C 309.745 233.226 312.015 235.858 314.126 238.574
C 314.677 239.282 316.226 240.577 316.306 241.438
C 315.881 242.558 314.808 243.382 314.122 244.359
C 311.964 247.429 309.528 250.338 307.056 253.161
C 306.021 254.343 304.565 256.377 302.925 256.713
C 300.456 257.218 297.485 256.701 294.967 256.67
C 289.91 256.608 284.904 256.651 279.861 256.623
C 275.727 256.599 271.479 256.954 267.372 256.501
C 266.137 256.365 264.755 256.549 263.601 255.992
C 261.858 255.151 260.574 252.833 259.49 251.302
C 257.18 248.039 254.542 244.978 252.332 241.65
C 252.312 241.456 252.292 241.262 252.272 241.067 Z
M 254.782 240.625
C 254.76 241.433 256.758 240.728 257.399 240.67
C 260.325 240.405 263.295 240.781 266.22 240.573
C 266.812 237.469 266.277 233.956 266.328 230.796
C 266.34 230.049 266.855 227.679 266.045 227.27
C 264.575 228.106 263.672 229.843 262.612 231.125
C 260.008 234.275 257.57 237.637 254.782 240.625 Z
M 255.656 242.871
C 255.994 244.15 256.994 245.168 257.789 246.214
C 260.002 249.127 262.739 254.128 266.527 254.929
C 266.846 254.793 266.422 252.467 266.402 252.01
C 266.272 249.032 265.979 245.541 266.378 242.599
C 265.549 242.103 263.981 242.426 263.025 242.443
C 260.556 242.487 258.082 242.336 255.656 242.871 Z
M 268.026 227.613
C 267.886 229.356 268.187 231.102 268.16 232.854
C 268.12 235.363 267.705 238.016 268.208 240.49
C 272.027 240.35 275.823 240.858 279.642 240.477
C 280.609 240.38 282.617 241.002 283.338 240.373
C 283.459 237.265 283.287 234.111 283.25 230.999
C 283.234 229.673 282.92 227.923 283.269 226.679
C 278.311 226.752 272.936 226.158 268.051 227.018
C 268.042 227.216 268.034 227.415 268.026 227.613 Z
M 268.063 243.123
C 267.913 246.977 268.139 250.917 268.138 254.787
C 273.105 254.534 278.323 254.513 283.287 254.851
C 283.903 254.201 283.408 252.358 283.384 251.497
C 283.301 248.45 283.066 245.266 283.282 242.228
C 278.408 242.047 272.897 241.736 268.079 242.506
C 268.073 242.712 268.068 242.918 268.063 243.123 Z
M 285.044 227.601
C 284.581 231.535 284.773 236.191 285.076 240.149
C 286.272 240.81 288.152 240.431 289.497 240.425
C 293.044 240.41 296.608 240.328 300.144 240.581
C 300.459 239.311 300.209 237.799 300.208 236.495
C 300.207 233.25 300.013 229.908 300.321 226.681
C 297.046 226.709 293.77 226.704 290.494 226.724
C 288.714 226.735 286.784 226.515 285.071 227.046
C 285.062 227.231 285.053 227.416 285.044 227.601 Z
M 285.073 243.107
C 285.244 246.952 285.357 250.858 285.235 254.705
C 288.216 255.081 291.498 254.658 294.514 254.675
C 296.27 254.686 298.463 255.085 300.17 254.786
C 300.525 250.726 300.235 246.432 300.119 242.365
C 298.92 241.904 297.288 242.24 296.003 242.239
C 293.67 242.239 291.335 242.263 289.003 242.245
C 287.695 242.235 286.316 242.055 285.112 242.609
C 285.099 242.775 285.086 242.941 285.073 243.107 Z
M 301.991 228.603
C 301.811 231.578 301.762 234.568 301.88 237.553
C 301.911 238.339 301.654 240.039 302.167 240.569
C 304.91 240.275 308.299 240.148 311.078 240.398
C 311.901 240.472 312.665 240.818 313.494 240.76
C 313.644 240.071 311.362 238.18 310.899 237.615
C 308.22 234.352 305.657 229.921 302.066 227.65
C 302.041 227.968 302.016 228.285 301.991 228.603 Z
M 301.872 242.362
C 302.147 246.513 301.895 250.785 301.939 254.944
C 304.027 254.232 305.363 252.461 306.755 250.83
C 308.977 248.228 311.691 245.427 313.424 242.485
C 312.718 241.852 311.342 242.344 310.407 242.333
C 307.599 242.3 304.653 241.948 301.872 242.362 Z"
opacity="1" fill="rgb(45,42,42)" fill-rule="evenodd" />
<path d="
M 253.579 609.135
C 254.828 609.088 256.075 609.119 257.322 609.064
C 257.18 612.526 257.258 616.02 257.225 619.49
C 257.211 620.934 256.945 622.825 257.77 624.107
C 259.32 626.516 264.064 625.934 265.622 623.731
C 266.284 622.796 265.968 620.81 265.971 619.732
C 265.98 616.331 266.1 612.887 265.937 609.493
C 266.782 609.066 268.557 608.806 269.438 609.293
C 269.156 613.653 269.403 618.123 269.358 622.501
C 269.341 624.184 269.683 626.123 269.363 627.769
C 268.281 627.624 266.95 627.73 265.888 627.975
C 265.975 627.264 265.787 626.615 265.869 625.913
C 265.132 625.975 264.115 627.098 263.437 627.484
C 262.336 628.112 261.049 628.285 259.796 628.285
C 255.02 628.286 253.721 625.002 253.704 620.76
C 253.689 616.891 253.909 612.996 253.579 609.135 Z"
opacity="1" fill="rgb(6,6,8)" fill-rule="evenodd" />
<path d="
M 257.93 323.329
C 260.17 322.888 260.597 325.553 259.491 327.138
C 258.958 327.232 258.515 327.28 258.088 326.927
C 257.83 325.724 257.893 324.553 257.93 323.329 Z"
opacity="1" fill="rgb(42,52,54)" fill-rule="evenodd" />
<path d="
M 257.774 332.899
C 257.959 332.723 258.144 332.546 258.329 332.37
C 259.972 332.395 259.667 334.662 259.344 335.913
C 258.87 335.996 258.527 335.961 258.059 335.886
C 257.548 334.888 257.685 333.979 257.774 332.899 Z"
opacity="1" fill="rgb(27,37,29)" fill-rule="evenodd" />
<path d="
M 258.866 354.589
C 258.927 354.382 258.987 354.175 259.048 353.969
C 259.632 353.802 260.393 353.79 260.848 353.374
C 261.052 352.77 261.037 352.138 261.127 351.506
C 261.99 350.473 263.845 351.32 265.051 350.492
C 266.085 350.621 266.972 350.989 267.971 351.245
C 268.851 352.595 266.956 352.66 265.984 352.971
C 264.987 354.709 267.504 354.836 268.659 354.981
C 269.47 354.582 269.949 353.222 270.406 352.475
C 271.746 350.289 273.814 346.902 276.771 347.645
C 280.655 348.62 284.128 351.346 287.519 353.387
C 290.349 355.092 293.176 356.992 295.637 359.204
C 298.198 361.505 300.489 365.01 300.177 368.602
C 299.724 373.809 292.699 378.869 287.891 379.662
C 285.878 379.994 283.793 379.128 281.981 378.359
C 279.306 377.224 276.928 375.481 274.498 373.909
C 271.623 372.049 268.216 369.961 266.713 366.737
C 265.651 364.459 266.706 362.1 266.559 359.751
C 264.394 358.674 261.987 359.139 259.739 358.399
C 259.534 357.425 261.852 356.147 260.688 355.473
C 259.848 355.319 259.368 355.324 258.866 354.589 Z
M 262.39 352.986
C 262.257 353.979 263.738 355.125 264.319 353.887
C 264.931 352.581 263.808 352.146 262.773 352.663
C 262.646 352.77 262.518 352.878 262.39 352.986 Z
M 262.386 356.478
C 262.408 356.659 262.43 356.84 262.451 357.02
C 263.16 357.77 265.471 357.74 266.516 357.985
C 266.831 358.058 267.489 358.64 267.757 358.329
C 268.098 357.931 267.798 357.272 267.704 356.828
C 266.557 355.828 263.653 355.702 262.386 356.478 Z
M 268.034 360.622
C 267.721 362.028 267.339 363.727 267.716 365.146
C 268.641 368.622 273.144 371.138 275.975 372.907
C 279.122 374.873 282.127 377.294 285.896 377.881
C 290.809 378.647 297.405 373.379 298.468 368.668
C 299.727 363.088 292.412 358.865 288.635 356.408
C 285.071 354.09 280.369 349.829 275.987 349.417
C 274.848 349.31 273.714 350.99 273.082 351.787
C 270.981 354.438 268.785 357.257 268.034 360.622 Z"
opacity="1" fill="rgb(36,35,44)" fill-rule="evenodd" />
<path d="
M 259.418 283.561
C 260.022 283.35 260.326 282.994 260.98 283.01
C 261.663 283.405 262.415 283.054 263.1 283.428
C 264.634 284.268 262.112 285.751 261.386 285.886
C 260.29 285.914 260.374 285.146 260.581 284.353
C 260.284 283.842 259.877 283.846 259.418 283.561 Z"
opacity="0.996" fill="rgb(75,71,100)" fill-rule="evenodd" />
<path d="
M 261.029 329.504
C 262.044 328.911 262.933 328.664 264.114 328.803
C 264.297 329.416 264.473 329.896 264.318 330.525
C 263.165 330.688 262.142 330.797 260.988 330.619
C 260.656 329.899 260.666 330.271 261.029 329.504 Z"
opacity="1" fill="rgb(36,37,39)" fill-rule="evenodd" />
<path d="
M 268.219 297.433
C 268.688 297.817 268.851 297.777 269.445 297.723
C 269.21 298.046 268.816 298.437 269.022 298.85
C 268.413 298.688 267.847 298.434 267.237 298.269
C 267.552 297.94 267.826 297.664 268.219 297.433 Z"
opacity="1" fill="rgb(127,138,143)" fill-rule="evenodd" />
<path d="
M 269.445 297.723
C 271.236 297.431 271.106 295.44 272.48 294.714
C 273.654 295.034 274.945 296.629 275.342 297.742
C 274.8 300.285 270.711 299.397 269.022 298.85
C 268.816 298.437 269.21 298.046 269.445 297.723 Z
M 272.564 297.021
C 271.189 299.041 274.837 298.502 273.075 297.013
C 272.905 297.016 272.734 297.019 272.564 297.021 Z"
opacity="0.996" fill="rgb(46,42,54)" fill-rule="evenodd" />
<path d="
M 269.682 198.23
C 271.55 198.162 274.666 197.085 276.11 198.548
C 275.682 200.774 273.929 200.415 271.918 200.321
C 271.489 200.301 269.964 200.573 269.72 200.127
C 269.489 199.704 269.68 198.688 269.682 198.23 Z"
opacity="1" fill="rgb(30,39,40)" fill-rule="evenodd" />
<path d="
M 270.015 286.112
C 270.447 285.105 271.291 283.96 272.46 283.837
C 273.098 283.963 273.602 284.002 274.132 284.407
C 274.329 285.864 273.469 286.379 272.181 286.965
C 271.455 287.235 270.888 287.191 270.138 286.996
C 269.767 286.536 269.862 286.818 270.015 286.112 Z"
opacity="1" fill="rgb(39,41,49)" fill-rule="evenodd" />
<path d="
M 271.348 232.02
C 271.389 231.823 271.431 231.627 271.472 231.43
C 273.499 231.122 276.393 230.999 278.404 231.418
C 278.478 232.089 278.481 232.701 278.348 233.363
C 276.12 233.101 273.773 233.435 271.521 233.288
C 271.33 232.838 271.336 232.511 271.348 232.02 Z"
opacity="1" fill="rgb(27,29,31)" fill-rule="evenodd" />
<path d="
M 272.655 193.335
C 274.488 193.243 277.239 194.831 276.956 196.958
C 275.282 197.521 272.982 194.73 272.655 193.335 Z"
opacity="0.996" fill="rgb(32,34,41)" fill-rule="evenodd" />
<path d="
M 273.888 202.994
C 274.772 201.709 275.562 201.059 277.098 200.708
C 277.708 201.158 277.27 201.61 276.915 202.164
C 276.148 203.359 275.057 204.152 273.641 204.253
C 273.592 203.404 273.523 203.826 273.888 202.994 Z"
opacity="0.992" fill="rgb(52,45,60)" fill-rule="evenodd" />
<path d="
M 274.974 610.1
C 274.974 609.551 274.916 609.861 275.309 609.216
C 276.284 609.194 277.245 609.181 278.219 609.2
C 278.65 609.908 278.333 610.936 278.291 611.728
C 278.535 612.311 279.933 610.496 280.326 610.17
C 281.549 609.156 283.813 608.201 285.386 608.873
C 285.484 610.169 285.447 611.258 285.068 612.504
C 284.13 612.8 282.951 612.146 281.953 612.212
C 277.276 613.942 278.263 620.211 278.404 624.257
C 278.434 625.108 278.886 626.993 278.603 627.767
C 277.425 627.77 276.247 627.735 275.07 627.742
C 274.705 621.896 275.178 615.956 274.974 610.1 Z"
opacity="1" fill="rgb(8,9,9)" fill-rule="evenodd" />
<path d="
M 276.384 364.358
C 277.568 364.141 278.909 364.191 280.03 363.769
C 279.72 362.108 277.524 360.988 276.939 359.235
C 279.552 357.546 280.602 364.075 283.22 364.305
C 283.868 363.423 284.488 362.085 285.628 361.754
C 286.291 361.561 287.342 361.929 287.108 362.778
C 286.391 363.354 285.769 363.846 285.141 364.534
C 284.943 366.261 288.726 366.194 289.885 366.727
C 290.106 367.355 290.181 367.779 289.971 368.413
C 288.539 368.359 285.821 366.326 284.674 367.261
C 284.682 368.697 286.461 370.756 286.038 371.914
C 284.827 371.87 283.214 371.056 282.655 369.936
C 282.672 368.644 283.136 367.298 283.371 366.025
C 282.178 363.549 277.843 366.368 276.125 365.07
C 276.212 364.833 276.298 364.595 276.384 364.358 Z"
opacity="1" fill="rgb(27,26,35)" fill-rule="evenodd" />
<path d="
M 277.495 191.59
C 277.608 191.169 277.679 190.761 277.823 190.348
C 278.266 190.322 279.069 190.065 279.346 190.567
C 280.107 191.942 280.686 196.479 278.781 196.66
C 277.17 195.748 277.277 193.185 277.495 191.59 Z"
opacity="1" fill="rgb(60,64,71)" fill-rule="evenodd" />
<path d="
M 277.993 202.646
C 279.986 199.732 281.236 209.167 278.21 207.233
C 277.646 205.806 277.739 204.127 277.993 202.646 Z"
opacity="1" fill="rgb(37,31,41)" fill-rule="evenodd" />
<path d="
M 280.468 201.501
C 280.655 201.404 280.842 201.308 281.03 201.212
C 282.075 201.439 284.057 202.993 283.892 204.223
C 282.477 204.296 280.485 203.001 280.468 201.501 Z"
opacity="0.996" fill="rgb(29,27,46)" fill-rule="evenodd" />
<path d="
M 280.913 195.511
C 281.6 194.304 282.12 193.4 283.708 193.811
C 283.689 194.764 282.674 196.799 281.824 197.282
C 280.575 197.99 280.722 196.177 280.913 195.511 Z"
opacity="0.992" fill="rgb(33,37,39)" fill-rule="evenodd" />
<path d="
M 281.37 199.028
C 282.684 197.629 285.791 198.185 287.624 198.281
C 287.795 198.86 287.833 199.837 287.234 200.152
C 285.768 200.388 281.688 201.08 281.37 199.028 Z"
opacity="1" fill="rgb(32,41,37)" fill-rule="evenodd" />
<path d="
M 281.96 322.114
C 282.275 316.723 286.23 312.33 290.525 309.517
C 292.153 308.45 294.404 307.14 296.4 307.132
C 298.351 307.125 300.574 308.509 302.205 309.465
C 307.858 312.775 311.876 317.582 311.479 324.387
C 311.08 331.244 304.033 337.936 297.121 337.895
C 288.56 337.844 281.459 330.67 281.96 322.114 Z
M 283.508 322.611
C 283.221 330.02 290.044 336.567 297.491 336.113
C 303.799 335.729 309.356 329.54 309.714 323.455
C 310.03 318.09 305.72 313.777 301.417 311.202
C 299.945 310.321 298.156 309.166 296.366 309.232
C 290.283 309.457 283.738 316.679 283.508 322.611 Z"
opacity="1" fill="rgb(32,32,40)" fill-rule="evenodd" />
<path d="
M 284.225 271.267
C 285.42 271.079 287.266 270.938 288.255 271.78
C 288.429 273.416 284.98 273.937 284.281 272.702
C 284.033 272.263 284.179 271.716 284.225 271.267 Z"
opacity="0.996" fill="rgb(37,31,47)" fill-rule="evenodd" />
<path d="
M 286.836 397.295
C 288.184 396.689 289.808 396.799 291.165 397.332
C 291.504 397.794 291.403 398.053 291.061 398.477
C 289.673 399.171 286.971 398.965 286.836 397.295 Z"
opacity="0.996" fill="rgb(22,24,34)" fill-rule="evenodd" />
<path d="
M 289.024 268.146
C 289.104 267.007 289.175 265.27 290.759 265.699
C 291.082 266.941 290.912 268.168 290.946 269.428
C 290.2 269.517 289.83 269.456 289.216 269.006
C 289.007 268.417 289.062 268.706 289.024 268.146 Z"
opacity="1" fill="rgb(26,20,32)" fill-rule="evenodd" />
<path d="
M 288.948 275.604
C 289.059 275.128 289.096 274.784 289.375 274.375
C 291.391 273.68 291.083 276.501 290.679 277.735
C 289.159 278.416 288.845 276.749 288.948 275.604 Z"
opacity="1" fill="rgb(30,26,31)" fill-rule="evenodd" />
<path d="
M 288.903 320.047
C 289.959 317.452 291.849 318.63 293.903 318.425
C 294.321 317.213 294.307 316.038 294.986 314.894
C 297.571 312.882 300.102 316.845 300.522 318.978
C 301.678 319.134 302.868 319.095 303.993 319.444
C 305.133 321.143 303.395 326.166 300.822 324.608
C 300.062 322.841 302.143 323.168 302.767 322.099
C 303.007 321.687 302.787 321.291 302.758 320.867
C 301.771 320.569 300.599 320.503 299.571 320.366
C 298.013 319.027 298.972 316.593 296.327 316.041
C 295.679 317.023 295.523 318.613 295.281 319.775
C 294.093 320.132 291.098 319.319 290.667 320.901
C 291.153 322.121 292.311 322.611 292.846 323.739
C 292.983 324.028 292.741 325.736 292.177 325.311
C 291.958 325.146 292.053 324.829 291.909 324.632
C 290.562 322.792 288.484 322.979 288.903 320.047 Z"
opacity="1" fill="rgb(23,24,30)" fill-rule="evenodd" />
<path d="
M 289.407 231.41
C 291.286 231.576 295.376 230.919 296.782 232.054
C 296.851 232.487 297.091 233.336 296.585 233.485
C 294.821 233.563 291.161 234.105 289.548 233.403
C 288.782 233.069 289.154 231.934 289.407 231.41 Z"
opacity="1" fill="rgb(36,39,40)" fill-rule="evenodd" />
<path d="
M 289.723 326.267
C 290.698 325.865 291.337 325.907 292.156 326.579
C 293 326.828 294.204 326.476 295.035 326.283
C 295.368 326.99 295.716 327.987 294.759 328.396
C 292.333 328.423 289.398 329.701 289.723 326.267 Z"
opacity="1" fill="rgb(32,31,40)" fill-rule="evenodd" />
<path d="
M 292.436 271.374
C 293.359 271.163 296.894 270.714 295.811 272.648
C 294.433 272.97 292.098 273.452 292.436 271.374 Z"
opacity="1" fill="rgb(32,36,46)" fill-rule="evenodd" />
<path d="
M 292.503 392.608
C 292.541 392.379 292.579 392.149 292.617 391.92
C 295.709 391.003 293.99 396.767 292.595 395.448
C 292.318 394.501 292.41 393.577 292.503 392.608 Z"
opacity="1" fill="rgb(28,35,40)" fill-rule="evenodd" />
<path d="
M 292.386 400.466
C 292.632 400.346 292.878 400.226 293.125 400.106
C 294.647 400.3 294.726 401.916 294.217 403.198
C 293.724 403.375 293.392 403.348 292.882 403.331
C 292.161 402.549 292.323 401.466 292.386 400.466 Z"
opacity="1" fill="rgb(28,23,25)" fill-rule="evenodd" />
<path d="
M 295.874 329.568
C 297.216 327.079 301.015 325.274 303.76 326.451
C 304.069 327.263 303.601 328.281 302.931 328.801
C 301.53 329.067 299.973 328.275 298.542 328.312
C 297.41 329.263 298.195 330.94 297.264 331.982
C 296.77 332.089 296.417 332.037 295.927 331.972
C 295.736 331.171 295.672 330.376 295.874 329.568 Z"
opacity="1" fill="rgb(30,30,40)" fill-rule="evenodd" />
<path d="
M 295.989 397.328
C 296.944 397.078 298.441 396.591 299.395 396.925
C 299.406 397.543 299.347 398.091 299.221 398.695
C 298.136 398.949 295.259 398.987 295.989 397.328 Z"
opacity="1" fill="rgb(20,28,34)" fill-rule="evenodd" />
<path d="
M 298.492 611.613
C 298.552 610.819 298.533 610.022 298.687 609.244
C 299.739 609.261 300.854 608.985 301.892 609.268
C 301.884 609.675 301.619 611.578 302.271 611.577
C 302.69 611.577 303.862 609.929 304.36 609.655
C 306.775 608.325 310.584 608.256 312.656 610.223
C 314.472 611.948 314.673 614.335 314.716 616.702
C 314.779 620.223 314.099 624.369 314.776 627.817
C 313.662 627.892 312.535 627.798 311.418 627.843
C 310.805 627.319 311.192 625.006 311.195 624.192
C 311.206 621.177 312.083 616.716 310.92 613.892
C 309.602 610.692 303.988 610.93 302.439 613.819
C 300.252 617.9 303.046 623.655 302.073 627.956
C 300.905 627.89 299.741 627.865 298.575 627.758
C 298.094 622.545 298.126 616.84 298.492 611.613 Z"
opacity="1" fill="rgb(10,11,11)" fill-rule="evenodd" />
<path d="
M 299.951 157.617
C 300.175 156.575 300.356 155.741 300.997 154.863
C 302.687 154.421 304.399 154.485 306.132 154.498
C 306.416 153.829 306.202 152.495 306.209 151.764
C 306.228 149.58 306.462 147.649 308.186 146.097
C 309.334 145.063 311.177 145.297 312.605 145.319
C 315.904 145.371 319.207 145.313 322.506 145.29
C 324.326 145.277 326.089 144.95 327.477 146.366
C 329.635 148.569 329.071 151.802 329.429 154.546
C 331.282 154.351 333.236 154.679 335.094 154.765
C 335.59 155.651 335.438 157.009 335.452 158.006
C 335.487 160.505 335.477 163.001 335.47 165.5
C 335.442 174.756 335.33 184.023 335.47 193.277
C 335.507 195.719 336.484 201.059 333.703 202.403
C 332.78 202.849 331.505 202.845 330.499 202.908
C 329.515 204.209 329.555 205.756 327.902 206.601
C 326.242 207.45 324.143 207.277 322.342 207.206
C 319.315 207.087 316.295 206.958 313.266 206.903
C 311.822 206.877 309.44 207.184 308.166 206.331
C 307.138 205.642 306.92 203.858 306.671 202.749
C 304.597 202.571 302.813 202.499 300.886 201.608
C 300.222 200.663 300.358 199.181 300.299 198.058
C 300.17 195.6 300.305 193.093 300.06 190.645
C 299.662 186.659 299.924 182.52 299.903 178.512
C 299.868 171.547 299.819 164.581 299.951 157.617 Z
M 301.535 157.6
C 301.189 159.484 301.429 161.585 301.433 163.499
C 301.44 167.333 301.439 171.166 301.44 175
C 301.441 180.644 301.522 186.282 301.675 191.906
C 301.753 194.773 301.523 197.884 302.259 200.676
C 304.52 201.333 307.168 200.893 309.502 200.929
C 314.553 201.007 319.595 200.977 324.65 201.041
C 327.036 201.071 331.326 201.7 333.449 200.481
C 334.014 199.737 333.863 198.395 333.882 197.504
C 333.938 194.839 333.941 192.175 333.936 189.51
C 333.921 182.009 333.94 174.509 333.929 167.008
C 333.923 163.784 334.616 159.509 333.705 156.41
C 330.19 155.999 326.541 156.203 323.005 156.195
C 315.956 156.18 308.901 156.285 301.856 156.328
C 301.719 156.753 301.654 157.172 301.535 157.6 Z
M 308 149.596
C 307.801 150.776 307.309 153.435 307.918 154.471
C 314.292 153.732 321.129 154.324 327.536 154.449
C 327.916 154.257 327.684 152.933 327.674 152.518
C 327.632 150.897 327.541 148.447 326.003 147.475
C 324.758 146.688 322.773 147.093 321.362 147.114
C 318.775 147.151 316.182 147.253 313.595 147.177
C 312.337 147.141 310.702 146.863 309.533 147.458
C 308.641 147.913 308.403 148.765 308 149.596 Z
M 308.448 203.058
C 308.596 203.837 308.693 204.348 309.134 205.011
C 310.255 205.727 312.631 205.389 313.973 205.406
C 317.366 205.449 320.774 205.618 324.167 205.466
C 326.36 205.368 328.008 205.292 328.231 202.767
C 327.058 202.275 324.796 202.779 323.497 202.791
C 320.015 202.823 316.523 202.755 313.041 202.694
C 311.652 202.669 309.681 202.366 308.448 203.058 Z"
opacity="1" fill="rgb(38,33,34)" fill-rule="evenodd" />
<path d="
M 303.898 514.263
C 306.506 514.12 309.109 514.233 311.718 514.189
C 312.394 516.01 312.141 519.022 311.946 520.955
C 313.358 520.079 314.367 518.266 315.72 517.197
C 318.869 514.708 323.472 513.452 327.424 513.43
C 328.531 513.423 331.563 513.282 332.301 514.091
C 332.422 516.736 331.789 519.661 332.175 522.26
C 330.954 521.437 328.188 521.718 326.785 521.761
C 321.443 521.925 315.974 523.366 313.429 528.547
C 311.666 532.137 312.315 536.621 312.301 540.498
C 312.281 545.665 312.26 550.832 312.26 555.999
C 312.26 558.488 311.974 561.222 312.324 563.683
C 309.633 563.823 306.895 563.627 304.197 563.646
C 303.481 559.073 304.1 554.121 304.052 549.497
C 303.928 537.768 304.2 525.983 303.898 514.263 Z"
opacity="1" fill="rgb(2,2,4)" fill-rule="evenodd" />
<path d="
M 307.775 361.428
C 308.632 360.308 310.164 360.058 311.408 360.727
C 311.755 361.263 311.892 361.669 311.775 362.3
C 310.881 362.892 308.487 362.575 307.688 361.992
C 307.717 361.804 307.746 361.616 307.775 361.428 Z"
opacity="1" fill="rgb(45,44,54)" fill-rule="evenodd" />
<path d="
M 310.497 167.599
C 310.645 166.903 310.48 167.225 311.06 166.67
C 313.373 167.434 315.159 168.991 317.187 170.272
C 319.595 171.792 321.995 173.343 324.348 174.949
C 325.146 175.494 328.427 177.132 328.225 178.245
C 324.834 181.5 320.171 184.158 316.179 186.623
C 314.448 187.691 312.612 189.309 310.506 189.462
C 309.763 185.979 310.227 182.046 310.246 178.498
C 310.265 174.964 309.823 171.073 310.497 167.599 Z
M 311.888 168.738
C 311.678 174.862 311.57 181.081 311.773 187.205
C 312.299 187.484 314.44 185.649 314.929 185.307
C 317.539 183.474 320.284 181.833 322.875 179.977
C 323.552 179.492 325.301 178.719 325.548 178.009
C 322.319 176.09 319.151 173.743 316.087 171.56
C 314.681 170.559 313.479 169.427 311.888 168.738 Z"
opacity="1" fill="rgb(35,37,37)" fill-rule="evenodd" />
<path d="
M 311.371 150.486
C 313.561 149.315 316.666 149.811 319.073 149.796
C 319.995 149.79 321.147 149.644 321.991 150.036
C 322.051 150.502 322.123 150.964 322.058 151.431
C 320.969 151.885 319.637 151.535 318.501 151.459
C 316.841 151.348 315.17 151.46 313.508 151.43
C 312.491 151.411 311.355 151.687 311.371 150.486 Z"
opacity="1" fill="rgb(51,52,60)" fill-rule="evenodd" />
<path d="
M 312.886 355.52
C 312.973 355.311 313.06 355.102 313.147 354.893
C 315.048 354.832 315.38 357.729 314.537 359.171
C 313.977 359.279 313.489 359.229 312.963 359.018
C 312.652 357.854 312.747 356.702 312.886 355.52 Z"
opacity="1" fill="rgb(44,52,58)" fill-rule="evenodd" />
<path d="
M 313.519 365.106
C 313.59 364.635 313.576 364.268 313.837 363.859
C 315.906 363.821 315.856 366.153 314.856 367.564
C 313.482 367.855 313.499 366.1 313.519 365.106 Z"
opacity="1" fill="rgb(26,32,39)" fill-rule="evenodd" />
<path d="
M 314.793 376.749
C 322.526 376.544 330.272 376.82 338.014 376.714
C 344.683 376.622 351.565 376.134 358.213 376.651
C 358.692 377.379 358.4 379.094 358.39 379.996
C 358.363 382.491 358.341 385.003 358.43 387.497
C 358.671 394.315 358.491 401.176 358.481 407.999
C 358.475 411.877 358.904 416.083 358.396 419.922
C 356.067 420.551 352.444 419.103 350.472 420.357
C 347.233 422.416 344.507 425.614 341.341 427.877
C 340.4 428.549 338.788 430.101 337.564 430.069
C 336.101 430.029 334.6 428.672 333.439 427.915
C 329.95 425.642 327.211 422.541 323.921 420.107
C 322.953 419.391 321.881 419.615 320.774 419.664
C 318.762 419.752 316.792 419.603 314.79 419.604
C 314.485 416.118 314.899 412.512 314.938 409.013
C 315.058 398.378 315.77 387.342 314.793 376.749 Z
M 316.399 378.415
C 316.521 380.738 316.102 383.23 316.469 385.522
C 318.797 384.662 321.687 385.878 324.076 384.914
C 325.548 384.32 326.563 382.517 327.308 381.208
C 327.77 380.397 328.354 379.44 328.376 378.493
C 327.616 378.035 325.901 378.346 325.003 378.34
C 322.132 378.321 319.257 378.315 316.399 378.415 Z
M 316.521 388.106
C 316.087 390.509 316.41 393.068 316.408 395.498
C 316.404 400.332 316.448 405.165 316.432 409.999
C 316.426 411.831 316.381 413.665 316.408 415.498
C 316.42 416.29 316.247 417.507 316.631 418.184
C 317.908 417.893 319.6 417.913 320.932 417.949
C 321.971 417.634 323.114 415.765 323.936 414.978
C 326.172 412.836 328.405 410.511 331.231 409.176
C 331.657 407.787 331.388 405.631 331.14 404.202
C 328.257 404.152 325.182 406.122 323.332 403.065
C 322.889 401.256 324.206 399.837 325.238 398.497
C 327.58 395.454 330.298 392.732 333.076 390.088
C 334.44 388.79 335.613 387.244 337.605 387.094
C 339.533 388.377 341.087 390.346 342.722 391.976
C 345.113 394.359 347.68 396.63 349.546 399.473
C 351.035 401.742 349.518 404.575 346.817 405.007
C 344.998 405.298 343.092 404.269 341.278 404.161
C 341.269 405.392 341.079 406.747 341.487 407.929
C 343.643 409.87 346.107 411.42 348.308 413.305
C 350.137 414.873 351.806 416.706 353.679 418.2
C 354.579 418.5 355.688 418.579 356.639 418.545
C 357.54 416.82 356.898 413.448 356.914 411.507
C 356.959 405.839 356.91 400.171 356.898 394.504
C 356.894 392.672 356.803 390.832 356.848 389.001
C 356.861 388.48 357.013 387.342 356.711 386.92
C 352.972 386.673 347.484 388.336 345.498 384.07
C 345.13 383.279 344.88 382.459 344.73 381.6
C 344.554 380.585 344.343 379.551 344.389 378.522
C 343.215 378.013 341.277 378.377 339.997 378.371
C 336.762 378.358 333.309 378.031 330.112 378.539
C 328.872 381.124 327.653 384.995 324.854 386.32
C 322.653 387.361 318.953 387.056 316.585 386.963
C 316.571 387.849 316.606 387.469 316.521 388.106 Z
M 323.832 417.488
C 323.798 417.704 323.763 417.919 323.729 418.135
C 326.173 418.656 329.005 418.386 331.505 418.382
C 335.839 418.375 340.171 418.425 344.505 418.385
C 346.11 418.37 347.716 418.294 349.319 418.35
C 349.704 418.363 350.691 418.477 350.919 418.074
C 350.466 417.179 348.985 416.108 348.182 415.436
C 345.806 413.446 343.184 411.782 340.962 409.613
C 340.085 409.792 339.374 410.652 338.581 411.102
C 336.426 412.325 333.549 412.335 331.91 410.34
C 330.932 410.462 329.944 411.52 329.245 412.18
C 327.446 413.877 325.727 415.944 323.832 417.488 Z
M 325.463 401.06
C 325.368 401.248 325.273 401.436 325.178 401.625
C 325.156 402.899 325.955 403.154 327.072 403.098
C 329.074 402.998 331.108 402.48 333.125 402.313
C 333.515 404.412 332.395 407.423 333.136 409.297
C 335.158 410.399 337.408 410.246 339.237 408.775
C 340.331 407.019 338.43 404.132 339.838 402.297
C 342.123 402.468 345.11 403.395 347.336 403.01
C 349.276 402.012 347.507 399.73 346.617 398.585
C 344.565 395.946 342.07 393.629 339.712 391.27
C 339.064 390.622 337.855 389.096 337.067 388.841
C 332.729 391.581 328.003 396.615 325.463 401.06 Z
M 326.436 420.016
C 326.452 421.318 329.357 422.918 330.356 423.657
C 332.165 424.996 335.065 428.012 337.5 427.866
C 339.344 427.756 341.714 425.627 343.103 424.531
C 344.49 423.438 345.84 422.358 347.295 421.359
C 347.663 421.105 348.562 420.654 348.14 420.218
C 344.98 419.536 341.425 420.116 338.217 420.133
C 334.336 420.155 330.29 419.654 326.436 420.016 Z
M 346.024 379.114
C 345.949 381.035 346.783 384.351 348.845 385.069
C 350.246 385.557 351.946 385.404 353.401 385.389
C 354.275 385.381 355.827 385.651 356.567 385.209
C 356.749 383.155 357.082 380.412 356.679 378.392
C 353.183 378.055 349.532 378.319 346.059 378.566
C 346.048 378.748 346.036 378.931 346.024 379.114 Z"
opacity="1" fill="rgb(34,33,39)" fill-rule="evenodd" />
<path d="
M 316.48 360.912
C 317.519 360.268 318.41 360.125 319.622 360.122
C 319.73 360.711 320.051 361.556 319.476 361.986
C 318.323 362.298 315.77 362.889 316.48 360.912 Z"
opacity="1" fill="rgb(36,38,42)" fill-rule="evenodd" />
<path d="
M 319.011 618.112
C 319.26 615.409 319.918 613.042 321.924 611.076
C 324.836 608.222 330.622 607.782 333.683 610.638
C 336.349 613.124 335.435 616.589 336.2 619.675
C 331.732 619.485 327.151 619.511 322.68 619.793
C 323.048 624.389 326.758 626.023 331.021 625.365
C 332.538 625.131 333.951 624.139 335.51 624.281
C 335.863 628.553 329.214 628.622 326.201 628.043
C 321.154 627.074 319.061 622.972 319.011 618.112 Z
M 322.522 616.621
C 322.499 616.809 322.476 616.998 322.453 617.186
C 323.049 617.596 324.264 617.329 324.997 617.333
C 327.485 617.346 330.626 617.817 333.038 617.172
C 333.97 613.519 329.741 610.802 326.633 611.572
C 323.967 612.232 323.31 614.322 322.522 616.621 Z"
opacity="1" fill="rgb(7,11,12)" fill-rule="evenodd" />
<path d="
M 335.456 536.618
C 336.475 530.453 337.985 524.613 342.581 520.036
C 351.304 511.347 367.532 510.814 376.004 520.12
C 379.373 523.821 381.273 528.813 381.693 533.763
C 381.918 536.418 381.563 539.149 381.825 541.779
C 374.727 541.577 367.602 541.741 360.5 541.701
C 355.01 541.67 349.407 541.353 343.93 541.754
C 344.126 543.785 344.464 546.006 345.311 547.878
C 349.029 556.1 358.492 558.859 366.8 556.926
C 368.997 556.415 371.268 555.773 373.268 554.705
C 374.723 553.928 376.088 552.483 377.606 551.936
C 378.763 552.9 379.283 555.568 380.054 556.906
C 380.256 557.257 381.09 558.289 380.864 558.648
C 378.811 559.329 376.938 561.102 374.921 562.004
C 371.678 563.455 368.284 564.09 364.788 564.564
C 353.713 566.068 341.919 561.025 337.398 550.467
C 335.604 546.277 335.028 541.143 335.456 536.618 Z
M 344.435 532.579
C 344.283 533.28 344.165 533.954 344.124 534.67
C 346.584 535.75 350.351 535.124 353.008 535.167
C 359.896 535.278 366.845 534.937 373.722 535.234
C 373.652 532.001 373.035 528.843 371.098 526.176
C 366.573 519.949 357.242 518.894 350.955 523.061
C 347.569 525.305 345.742 528.873 344.435 532.579 Z"
opacity="1" fill="rgb(1,1,3)" fill-rule="evenodd" />
<path d="
M 339.215 145.77
C 340.34 145.437 342.021 144.911 343.158 145.276
C 343.361 145.764 343.609 147.165 343.102 147.486
C 341.735 147.466 339.088 147.477 339.215 145.77 Z"
opacity="1" fill="rgb(50,51,66)" fill-rule="evenodd" />
<path d="
M 339.915 621.583
C 341.059 616.488 348.049 617.06 352.011 617.425
C 352.314 617.013 352.153 615.899 352.145 615.409
C 352.086 611.738 347.944 611.137 345.032 611.981
C 343.807 612.336 342.769 613.416 341.488 613.484
C 340.936 612.758 340.722 612.147 340.863 611.229
C 343.388 607.648 352.396 608.105 354.733 611.719
C 356.336 614.198 355.636 618.688 355.64 621.496
C 355.643 623.139 355.681 624.781 355.694 626.424
C 355.696 626.684 355.841 627.733 355.592 627.889
C 354.543 627.863 353.424 627.781 352.391 627.964
C 352.36 627.243 352.221 626.492 352.343 625.785
C 351.24 625.718 349.978 627.567 348.857 627.943
C 344.212 629.501 339.152 626.795 339.915 621.583 Z
M 343.391 622.092
C 342.917 627.65 351.547 626.527 352.07 621.733
C 352.146 621.036 352.458 619.881 351.917 619.304
C 349.021 619.536 344.742 618.711 343.391 622.092 Z"
opacity="1" fill="rgb(10,11,12)" fill-rule="evenodd" />
<path d="
M 344.495 149.62
C 344.533 149.374 344.571 149.128 344.609 148.882
C 346.778 148.435 346.835 150.66 346.284 152.318
C 344.532 152.722 344.591 150.93 344.495 149.62 Z"
opacity="1" fill="rgb(46,40,41)" fill-rule="evenodd" />
<path d="
M 344.834 139.829
C 344.917 139.83 345.985 139.796 346.217 139.933
C 346.839 140.299 346.566 143.179 346.285 143.696
C 345.693 143.856 345.377 143.75 344.811 143.546
C 344.519 142.303 344.627 141.077 344.834 139.829 Z"
opacity="1" fill="rgb(48,55,57)" fill-rule="evenodd" />
<path d="
M 347.884 145.386
C 348.989 145.117 350.66 145.148 351.531 145.989
C 351.736 146.352 351.721 146.617 351.556 146.99
C 349.922 147.428 348.074 147.309 347.884 145.386 Z"
opacity="1" fill="rgb(42,37,53)" fill-rule="evenodd" />
<path d="
M 348.757 175.872
C 350.469 175.431 353.855 175.035 355.165 176.372
C 355.214 177.221 355.357 178.05 356.177 178.478
C 356.916 180.515 354.484 182.159 352.578 181.633
C 352.322 180.564 355.265 178.957 354.897 178.57
C 353.507 177.103 349.069 179.138 348.757 175.872 Z"
opacity="0.996" fill="rgb(55,56,68)" fill-rule="evenodd" />
<path d="
M 353.145 171.824
C 355.879 171.041 355.334 173.713 356.307 175
C 356.207 175.309 355.386 174.853 355.157 174.751
C 353.934 174.208 353.473 173.03 353.145 171.824 Z"
opacity="0.996" fill="rgb(62,67,71)" fill-rule="evenodd" />
<path d="
M 357.062 180.62
C 357.166 180.429 357.27 180.239 357.375 180.048
C 359.787 178.677 359.978 183.816 358.986 184.943
C 358.416 185.241 357.801 185.159 357.174 185.174
C 356.902 183.855 356.97 181.979 357.062 180.62 Z"
opacity="1" fill="rgb(43,43,46)" fill-rule="evenodd" />
<path d="
M 357.397 169.071
C 357.605 168.246 357.369 168.582 358.184 168.123
C 360.065 168.513 360.183 173.629 357.909 174.055
C 356.539 173.522 357.139 170.155 357.397 169.071 Z"
opacity="0.996" fill="rgb(46,38,50)" fill-rule="evenodd" />
<path d="
M 359.851 175.211
C 360.258 173.602 360.595 171.943 362.621 171.998
C 363.267 173.216 361.866 174.21 361.357 175.312
C 361.425 175.641 361.658 175.753 362.007 175.741
C 363.613 175.684 364.71 175.273 366.318 175.884
C 366.586 176.391 366.705 176.734 366.659 177.303
C 364.769 178.813 361.038 177.508 359.879 175.681
C 359.869 175.524 359.86 175.367 359.851 175.211 Z"
opacity="0.996" fill="rgb(59,54,64)" fill-rule="evenodd" />
<path d="
M 360.49 178.353
C 362.146 178.678 363.064 180.13 363.189 181.726
C 361.416 182.555 360.469 179.794 360.291 178.606
C 360.357 178.522 360.424 178.438 360.49 178.353 Z"
opacity="1" fill="rgb(38,39,53)" fill-rule="evenodd" />
<path d="
M 361.127 609.204
C 362.431 609.202 363.893 608.939 365.16 609.293
C 365.314 610.102 365.031 610.982 364.955 611.794
C 364.855 612.376 366.722 610.209 366.965 609.964
C 367.905 609.018 370.79 608.581 371.869 609.447
C 371.9 610.414 372.056 611.377 371.861 612.337
C 370.495 612.299 368.936 611.46 367.62 612.075
C 366.485 612.606 365.233 613.801 364.912 615.043
C 364.534 616.503 364.79 618.245 364.796 619.74
C 364.807 622.433 364.596 625.247 364.872 627.923
C 363.712 627.818 362.525 627.88 361.362 627.909
C 360.935 625.991 361.26 623.718 361.267 621.757
C 361.282 617.579 361.357 613.376 361.127 609.204 Z"
opacity="1" fill="rgb(14,14,17)" fill-rule="evenodd" />
<path d="
M 364.43 144.088
C 365.876 134.336 375.232 127.261 385.017 128.892
C 389.037 129.562 393.03 131.936 395.784 134.914
C 397.45 136.717 398.775 138.837 399.517 141.189
C 400.361 143.863 400.268 146.527 399.864 149.259
C 398.152 160.811 383.869 167.871 373.536 162.798
C 369.485 160.809 366.839 156.442 365.206 152.391
C 364.122 149.702 364.008 146.938 364.43 144.088 Z
M 365.988 144.602
C 365.75 147.025 365.907 149.262 366.795 151.56
C 368.181 155.15 370.629 158.871 374.085 160.757
C 384.817 166.611 397.505 157.889 398.368 146.401
C 398.971 138.374 390.823 130.734 383.108 130.353
C 374.967 129.95 366.805 136.262 365.988 144.602 Z"
opacity="1" fill="rgb(40,39,44)" fill-rule="evenodd" />
<path d="
M 368.668 431.277
C 371.533 430.533 374.569 430.71 377.512 430.721
C 380.3 430.731 383.077 430.534 385.862 430.689
C 390.589 424.225 394.753 416.944 398.676 409.97
C 399.394 409.661 399.473 410.355 399.803 410.912
C 400.731 412.473 401.755 413.969 402.703 415.517
C 405.84 420.643 409.211 425.633 412.416 430.72
C 413.285 432.1 414.791 433.481 415.482 434.863
C 414.732 437.298 412.162 442.144 409.883 443.475
C 408.25 444.428 405.515 443.917 403.7 443.926
C 398.639 443.95 393.576 443.936 388.515 443.921
C 385.906 443.914 383.299 443.903 380.691 443.926
C 379.418 443.937 377.716 444.168 376.567 443.496
C 375.366 442.794 374.684 441.354 373.942 440.237
C 372.089 437.447 369.94 434.37 368.668 431.277 Z
M 371.366 433.036
C 373.521 435.928 375.039 439.419 377.466 442.09
C 380.187 443.152 384.594 442.201 387.497 442.145
C 394.684 442.007 401.901 442.472 409.08 442.131
C 410.316 441.004 411.137 439.194 412.019 437.786
C 412.464 437.076 413.216 436.394 413.303 435.54
C 412.586 433.917 411.312 432.462 410.393 430.941
C 407.842 426.714 405.139 422.59 402.509 418.414
C 401.666 417.075 400.783 415.773 399.9 414.461
C 399.518 413.893 399.319 412.938 398.652 413.633
C 396.197 417.839 393.463 421.854 390.779 425.911
C 389.481 427.874 388.384 430.463 386.701 432.105
C 383.652 433.055 379.229 432.553 376.016 432.638
C 374.59 432.676 372.635 432.318 371.366 433.036 Z"
opacity="1" fill="rgb(37,38,42)" fill-rule="evenodd" />
<path d="
M 369.824 144.934
C 370.737 144.376 371.802 143.921 372.398 142.982
C 373.609 141.074 373.494 138.321 375.336 136.808
C 376.265 136.045 377.691 135.562 378.88 135.907
C 379.455 136.074 379.91 136.512 380.537 136.42
C 382.084 136.192 383.365 135.064 385.033 135.194
C 386.095 135.276 386.85 136.216 387.7 136.741
C 390.491 138.466 390.673 139.411 390.183 142.666
C 391.864 142.524 394.266 143.523 394.254 145.467
C 394.023 147.055 392.435 147.941 391.663 149.248
C 390.93 150.489 391.439 151.147 391.138 152.301
C 390.642 154.206 388.614 154.545 387.014 154.884
C 385.048 156.259 384.044 158.478 381.168 157.513
C 380.232 157.199 379.618 156.197 378.598 156.117
C 377.302 156.016 376.025 156.33 374.901 155.483
C 373.861 154.203 373.63 152.553 372.944 151.092
C 372.001 149.086 370.493 147.31 369.475 145.318
C 369.591 145.19 369.708 145.062 369.824 144.934 Z
M 371.705 146.05
C 372.475 147.046 373.43 148.006 374.041 149.11
C 374.926 150.708 375.302 152.605 376.182 154.175
C 377.032 154.23 377.83 153.589 378.578 153.241
C 380.286 157.356 385.204 156.071 386.36 152.318
C 387.492 151.869 388.29 152.846 389.502 151.983
C 390.284 151.425 389.479 149.359 389.83 148.494
C 390.398 147.095 392.932 146.585 392.208 144.816
C 391.222 144.5 389.296 144.748 388.643 143.815
C 388.473 142.036 389.498 139.033 387.338 138.235
C 386.704 138.426 385.978 138.988 385.308 138.793
C 385.177 138.11 385.107 137.598 384.596 137.096
C 383.353 137.504 381.352 138.695 380.059 138.595
C 379.131 138.523 378.515 137.453 377.565 137.309
C 375.543 138.424 376.474 139.581 375.663 141.276
C 374.873 142.93 373.146 144.934 371.705 146.05 Z"
opacity="0.996" fill="rgb(43,39,49)" fill-rule="evenodd" />
<path d="
M 375.585 602.205
C 376.827 602.177 378.057 602.13 379.3 602.108
C 379.094 605.254 379.2 608.537 379.27 611.69
C 379.434 612.004 380.24 611.058 380.456 610.873
C 381.141 610.285 381.777 609.78 382.648 609.488
C 385.212 608.63 388.384 609.058 390.313 611.03
C 394.112 614.917 393.927 623.584 389.474 626.901
C 387.372 628.466 384.37 628.547 381.975 627.666
C 381.246 627.398 380.3 626.687 379.783 626.112
C 379.554 625.859 379.523 625.333 379.186 625.281
C 378.945 625.244 379.111 625.762 379.074 626.003
C 379.137 626.48 379.496 627.613 379.225 628.06
C 378.174 627.964 376.567 628.16 375.666 627.621
C 375.655 619.164 375.817 610.655 375.585 602.205 Z
M 379.005 619.623
C 379.112 620.812 378.933 622.125 379.254 623.268
C 381.343 625.519 385.518 626.463 387.797 623.925
C 389.801 621.694 389.879 616.659 388.313 614.173
C 386.369 611.086 380.569 610.809 379.409 614.749
C 378.942 616.338 379.338 618.03 379.005 619.623 Z"
opacity="1" fill="rgb(10,11,13)" fill-rule="evenodd" />
<path d="
M 376.353 407.519
C 377.255 405.63 378.459 403.966 380.466 403.144
C 384.711 401.406 390.341 403.464 391.536 408.167
C 392.678 412.661 389.092 417.276 386.533 420.625
C 385.529 421.938 384.618 423.313 383.651 424.65
C 383.375 425.033 383.093 425.753 382.557 425.793
C 381.654 419.53 374.53 414.371 376.353 407.519 Z
M 377.969 408.073
C 376.577 413.226 381.662 417.558 383.029 422.075
C 384.284 421.673 385.614 418.967 386.352 417.895
C 388.221 415.183 390.661 412.324 389.785 408.782
C 388.306 402.798 380.642 403.617 377.969 408.073 Z"
opacity="1" fill="rgb(38,40,49)" fill-rule="evenodd" />
<path d="
M 377.386 147.702
C 377.442 146.978 377.365 147.33 377.62 146.646
C 378.458 145.824 379.904 146.227 380.072 144.954
C 379.364 144.291 378.42 143.786 378.719 142.729
C 380.44 142.901 382.359 142.612 383.993 142.846
C 383.757 143.888 383.35 144.765 383.46 145.857
C 384.38 146.658 385.803 145.933 386.808 146.612
C 386.892 147.999 384.454 149.039 383.45 149.877
C 381.915 149.967 379.059 148.581 377.539 148.046
C 377.488 147.931 377.437 147.817 377.386 147.702 Z
M 380.542 146.649
C 380.535 147.206 380.509 146.92 380.636 147.506
C 381.265 147.88 382.94 148.54 383.297 147.521
C 383.146 147.065 381.722 145.4 381.213 145.497
C 380.814 145.858 380.651 146.121 380.542 146.649 Z"
opacity="0.996" fill="rgb(49,41,53)" fill-rule="evenodd" />
<path d="
M 378.371 436.908
C 378.453 436.801 378.535 436.693 378.618 436.585
C 379.584 436.31 380.382 436.369 381.366 436.509
C 381.776 437.134 381.876 437.688 381.884 438.427
C 380.296 438.669 378.616 438.883 378.371 436.908 Z"
opacity="1" fill="rgb(15,22,19)" fill-rule="evenodd" />
<path d="
M 382.003 411.138
C 381.953 410.514 381.921 410.852 382.19 410.137
C 383.301 409.374 384.707 409.132 385.817 410.028
C 385.966 410.66 385.992 411.191 385.846 411.825
C 385.025 412.847 383.727 413.124 382.632 412.367
C 382.286 411.953 382.126 411.666 382.003 411.138 Z"
opacity="1" fill="rgb(32,33,37)" fill-rule="evenodd" />
<path d="
M 391.184 514.239
C 393.733 514.327 396.415 514.329 398.965 514.162
C 399.2 516.286 399.238 518.429 399.369 520.574
C 400.819 519.727 401.849 518.183 403.168 517.133
C 405.156 515.551 407.688 514.447 410.125 513.78
C 412.83 513.04 415.944 513.023 418.707 513.412
C 420.608 513.68 422.497 514.137 424.236 514.969
C 434.011 519.641 433.273 530.345 433.252 539.602
C 433.241 544.401 433.254 549.201 433.26 554
C 433.263 556.418 433.231 558.84 433.306 561.257
C 433.327 561.941 433.071 563.006 433.29 563.646
C 430.57 563.663 427.846 563.444 425.125 563.428
C 424.649 560.169 424.923 556.757 424.918 553.464
C 424.91 547.977 424.879 542.49 424.866 537.004
C 424.855 532.466 425.275 527.566 422.057 523.915
C 416.964 518.136 406.197 520.558 402.101 526.248
C 399.436 529.949 399.654 533.632 399.632 537.997
C 399.604 543.497 399.639 548.998 399.646 554.499
C 399.649 556.792 399.598 559.096 399.702 561.387
C 399.724 561.861 399.505 563.244 399.781 563.591
C 396.935 563.654 394.083 563.488 391.238 563.614
C 391.923 547.193 390.361 530.646 391.184 514.239 Z"
opacity="1" fill="rgb(1,1,3)" fill-rule="evenodd" />
<path d="
M 395.208 609.306
C 396.443 609.286 397.656 609.157 398.889 609.324
C 399.677 612.878 400.993 616.399 402.194 619.836
C 402.744 621.41 403.137 623.316 404.047 624.71
C 406.54 620.24 408.025 614.151 409.313 609.179
C 410.526 609.008 412.312 608.886 413.461 609.391
C 410.863 614.743 408.961 620.405 406.817 625.96
C 405.207 630.129 404.609 635.806 399.295 636.62
C 398.12 636.8 396.961 636.664 395.791 636.572
C 395.783 635.634 395.848 634.75 396.002 633.826
C 396.899 633.422 398.266 633.88 399.281 633.679
C 402.66 631.862 401.934 628.575 400.937 625.706
C 399.607 621.882 398.101 618.13 396.748 614.316
C 396.194 612.756 395.143 610.961 395.208 609.306 Z"
opacity="1" fill="rgb(9,11,13)" fill-rule="evenodd" />
<path d="
M 405.822 162.85
C 406.751 162.468 407.895 162.279 408.885 162.575
C 409.521 162.766 409.929 163.736 409.378 164.209
C 408.238 164.454 405.855 164.218 405.822 162.85 Z"
opacity="0.996" fill="rgb(22,19,18)" fill-rule="evenodd" />
<path d="
M 410.904 157.549
C 411.33 156.687 411.714 156.431 412.646 156.224
C 412.881 157.575 413.109 159.326 412.785 160.672
C 410.685 160.752 410.554 159.306 410.904 157.549 Z"
opacity="1" fill="rgb(58,52,44)" fill-rule="evenodd" />
<path d="
M 411.388 165.959
C 412.115 165.449 411.726 165.573 412.533 165.526
C 413.266 166.211 413.149 168.006 412.912 168.92
C 410.958 169.247 411.42 167.339 411.388 165.959 Z"
opacity="1" fill="rgb(15,21,8)" fill-rule="evenodd" />
<path d="
M 414.512 163.063
C 414.861 162.366 414.645 162.68 415.151 162.115
C 416.115 161.804 417.347 161.681 418.229 162.239
C 418.301 162.75 418.366 163.185 418.267 163.69
C 417.046 163.728 415.917 163.944 414.679 163.848
C 414.44 163.38 414.507 163.639 414.512 163.063 Z"
opacity="1" fill="rgb(27,23,29)" fill-rule="evenodd" />
<path d="
M 424.943 616.088
C 425.394 614.202 426.025 612.469 427.482 611.115
C 430.597 608.219 436.793 607.856 439.995 610.785
C 440.14 611.342 440.094 613.625 439.281 613.693
C 438.126 612.907 437.095 612.011 435.687 611.749
C 426.757 610.084 425.371 625.031 433.516 625.812
C 434.473 625.904 435.455 625.834 436.385 625.59
C 437.574 625.279 438.695 624.35 439.612 623.561
C 440.113 624.279 440.216 625.675 440.299 626.545
C 440.097 626.923 439.049 627.289 438.649 627.478
C 436.953 628.278 434.928 628.531 433.067 628.419
C 426.443 628.019 423.828 622.114 424.943 616.088 Z"
opacity="1" fill="rgb(10,12,13)" fill-rule="evenodd" />
<path d="
M 428.466 135.111
C 429.063 133.023 429.785 130.971 431.648 129.648
C 432.784 128.841 434.263 128.949 435.591 128.93
C 438.659 128.886 442.057 128.145 444.393 130.617
C 446.342 132.68 445.895 134.902 445.953 137.482
C 454.438 137.63 463.011 137.466 471.513 137.356
C 472.148 138.626 471.741 140.701 471.747 142.084
C 471.762 145.999 470.833 151.169 472.03 154.932
C 472.84 157.477 476.008 159.638 477.4 161.963
C 477.781 162.601 478.915 164.23 478.497 164.959
C 477.659 165.622 475.782 165.416 474.777 165.403
C 471.52 165.364 468.262 165.357 465.005 165.339
C 453.045 165.272 440.95 164.902 429.004 165.433
C 428.108 161.977 428.622 157.641 428.592 154.077
C 428.538 147.792 428.068 141.385 428.466 135.111 Z
M 429.974 135.099
C 429.411 140.774 430.156 146.955 430.234 152.674
C 430.283 156.245 429.623 160.553 430.395 164.021
C 433.906 163.149 438.385 163.771 442.012 163.775
C 449.677 163.785 457.342 163.835 465.008 163.811
C 467.962 163.802 470.934 163.859 473.885 163.734
C 474.432 163.711 476.264 164.007 476.641 163.524
C 475.12 161.198 473.161 159.381 471.388 157.293
C 470.131 157.45 469.092 158.341 467.708 158.432
C 460.057 158.939 452.184 158.374 444.509 158.408
C 442.677 158.416 440.843 158.401 439.012 158.427
C 438.386 158.435 437.04 158.712 436.492 158.418
C 435.953 158.129 436.296 157.457 436.432 157.091
C 444.448 157.097 452.483 156.888 460.506 156.842
C 462.725 156.829 464.95 156.888 467.167 156.817
C 468.014 156.79 469.384 156.858 470.086 156.359
C 470.485 154.236 470.119 151.832 470.098 149.676
C 470.062 146.171 470.161 142.646 470.052 139.163
C 464.496 139.301 458.897 138.994 453.327 138.993
C 451.026 138.993 447.994 138.563 445.877 139.423
C 445.833 142.607 445.828 145.804 445.838 148.992
C 445.84 149.663 446.265 151.796 445.808 152.299
C 445.588 152.542 444.719 152.455 444.427 152.428
C 443.72 148.176 444.251 143.321 444.318 139.01
C 444.347 137.169 444.925 134.381 443.975 132.733
C 442.918 130.901 440.956 130.827 439.078 130.631
C 435.065 130.213 431.147 130.474 429.974 135.099 Z"
opacity="0.996" fill="rgb(32,29,30)" fill-rule="evenodd" />
<path d="
M 429.232 398.173
C 437.606 397.588 446.093 397.812 454.512 397.789
C 459.56 397.776 464.994 397.213 469.995 397.923
C 470.774 402.975 470.265 408.382 470.271 413.491
C 470.28 420.895 470.657 428.401 470.219 435.787
C 456.667 435.576 443.018 435.783 429.458 435.896
C 428.881 435.232 429.191 433.851 429.23 433
C 429.336 430.665 429.341 428.335 429.314 426
C 429.208 416.806 430.031 407.327 429.232 398.173 Z
M 430.963 400.065
C 430.749 406.768 430.308 413.966 431.092 420.625
C 431.423 423.436 430.902 426.396 431.136 429.262
C 431.727 429.904 432.861 427.109 433.191 426.612
C 435.264 423.479 437.095 419.812 439.56 416.985
C 441.409 416.382 443.588 416.754 445.507 416.797
C 448.582 416.867 451.654 416.804 454.728 416.744
C 456.094 416.717 458.772 416.24 459.919 417.022
C 462.54 421.746 466.199 426.046 468.454 430.952
C 468.879 430.769 468.701 429.626 468.637 429.259
C 468.307 427.356 468.516 425.413 468.542 423.496
C 468.615 418.262 468.639 413.022 468.597 407.787
C 468.577 405.23 468.008 402.144 468.559 399.644
C 467.314 399.222 465.802 399.435 464.495 399.446
C 462.004 399.466 459.512 399.453 457.02 399.471
C 448.448 399.534 439.847 399.775 431.283 399.658
C 431.176 399.794 431.07 399.929 430.963 400.065 Z
M 431.389 433.008
C 431.102 433.865 431.042 433.489 431.383 434.15
C 436.367 434.909 441.96 434.298 447.01 434.308
C 454.053 434.321 461.339 434.861 468.354 434.286
C 468.606 433.076 466.491 430.914 465.861 429.89
C 463.532 426.108 460.877 422.474 458.661 418.632
C 454.514 419.285 449.719 418.83 445.51 418.762
C 443.848 418.735 442.084 418.451 440.445 418.786
C 437.566 423.582 433.979 428.038 431.389 433.008 Z"
opacity="0.996" fill="rgb(40,38,38)" fill-rule="evenodd" />
<path d="
M 436.258 136.788
C 437.008 136.507 437.732 136.393 438.531 136.462
C 438.793 137.088 438.97 138.036 438.501 138.597
C 436.957 139.014 436.256 138.288 436.258 136.788 Z"
opacity="0.996" fill="rgb(36,38,31)" fill-rule="evenodd" />
<path d="
M 441.458 536.612
C 442.41 530.287 444.392 524.712 449.115 520.147
C 458.355 511.213 475.752 510.627 484.985 520.056
C 484.509 521.718 483.198 523.176 482.366 524.695
C 482.079 525.219 481.808 525.748 481.561 526.292
C 481.516 526.393 481.138 527.082 481.137 527.025
C 478.558 524.296 474.971 522.329 471.381 521.313
C 469.248 520.71 466.955 520.555 464.759 520.87
C 446.599 523.477 444.447 553.238 463.136 556.811
C 466.255 557.407 469.452 557.105 472.502 556.304
C 475.623 555.485 479.076 554.026 481.181 551.476
C 481.743 551.272 481.931 552.101 482.192 552.566
C 482.949 553.915 484.793 555.946 484.985 557.429
C 484.199 558.818 482.436 559.875 481.103 560.691
C 477.631 562.814 474.021 563.951 469.993 564.389
C 458.116 565.68 446.034 559.676 442.471 547.685
C 441.425 544.167 441.115 540.263 441.458 536.612 Z"
opacity="1" fill="rgb(1,1,3)" fill-rule="evenodd" />
<path d="
M 443.435 615.577
C 444.952 609.428 453.109 606.534 458.147 610.624
C 461.298 613.182 462.061 618.348 461.021 622.105
C 459.44 627.819 451.669 630.391 446.767 626.998
C 443.279 624.585 442.477 619.461 443.435 615.577 Z
M 446.905 617.101
C 446.627 619.696 446.682 622.498 448.694 624.423
C 452.222 627.802 457.265 624.578 457.859 620.389
C 458.24 617.704 457.737 614.317 455.424 612.588
C 451.578 609.714 447.348 612.968 446.905 617.101 Z"
opacity="1" fill="rgb(7,9,10)" fill-rule="evenodd" />
<path d="
M 448.739 185.703
C 450.248 185.244 451.528 185.344 452.999 185.879
C 453.538 186.37 453.331 186.756 452.765 187.105
C 451.172 187.359 448.453 187.913 448.739 185.703 Z"
opacity="1" fill="rgb(48,40,52)" fill-rule="evenodd" />
<path d="
M 454.212 180.245
C 454.593 180.21 454.976 180.085 455.355 180.138
C 456.025 180.233 456.037 183.799 455.721 184.237
C 454.844 185.453 454.063 182.449 454.052 182.01
C 454.037 181.409 454.122 180.838 454.212 180.245 Z"
opacity="1" fill="rgb(57,60,54)" fill-rule="evenodd" />
<path d="
M 454.346 188.447
C 456.375 187.882 456.308 190.649 455.848 192.13
C 455.343 192.176 454.895 192.103 454.445 191.871
C 454.174 190.758 454.232 189.58 454.346 188.447 Z"
opacity="1" fill="rgb(47,48,42)" fill-rule="evenodd" />
<path d="
M 456.907 185.948
C 458.1 185.211 459.182 185.494 460.502 185.366
C 460.556 185.881 460.672 186.592 460.557 187.099
C 460.425 187.679 457.481 187.122 457.066 187.053
C 456.839 186.407 456.915 186.772 456.907 185.948 Z"
opacity="1" fill="rgb(30,32,30)" fill-rule="evenodd" />
<path d="
M 465.784 609.274
C 466.955 609.268 468.134 609.234 469.303 609.199
C 469.575 609.915 469.253 610.778 469.385 611.528
C 470.804 610.765 471.547 609.59 473.194 609.139
C 474.035 608.908 474.919 608.813 475.789 608.78
C 483.646 608.476 482.121 618.712 482.177 623.998
C 482.19 625.284 482.215 626.569 482.207 627.856
C 481.007 627.918 479.731 627.863 478.534 627.777
C 478.628 624.692 478.579 621.593 478.618 618.503
C 478.637 616.973 478.964 614.987 478.194 613.59
C 476.502 610.519 471.08 611.308 469.743 614.291
C 468.539 616.977 469.218 621.829 469.498 624.748
C 469.532 625.107 469.991 627.801 469.619 627.905
C 468.674 627.9 466.722 628.278 465.967 627.819
C 466.116 621.675 465.991 615.421 465.784 609.274 Z"
opacity="0.996" fill="rgb(11,11,11)" fill-rule="evenodd" />
<path d="
M 477.729 359.813
C 486.363 359.061 495.338 359.647 504.011 359.647
C 506.509 359.647 509.008 359.646 511.506 359.636
C 512.739 359.631 514.32 359.425 515.476 359.872
C 515.831 363.897 515.52 367.951 515.413 371.963
C 515.346 374.433 515.594 377.001 515.179 379.447
C 514.267 384.832 512.236 390.298 510.304 395.389
C 509.613 397.212 508.486 399.12 508.222 401.063
C 508.131 401.735 508.553 404.77 507.998 404.94
C 500.333 404.956 492.724 405.177 485.047 404.833
C 484.399 404.343 484.781 402.536 484.755 401.784
C 484.677 399.587 483.482 397.191 482.761 395.13
C 481.024 390.173 478.901 385.144 478.056 379.931
C 477.449 376.182 477.736 372.334 477.657 368.555
C 477.599 365.799 477.117 362.504 477.729 359.813 Z
M 479.437 362.003
C 479.377 363.992 479.569 366.131 479.295 368.098
C 480.206 368.436 481.526 368.164 482.5 368.162
C 484.667 368.158 486.834 368.173 489.001 368.17
C 497.152 368.158 505.789 367.306 513.884 368.29
C 513.758 366.07 513.719 363.805 513.889 361.587
C 513.354 361.188 512.325 361.364 511.661 361.357
C 509.775 361.337 507.887 361.39 506 361.389
C 499.56 361.388 493.119 361.367 486.679 361.373
C 484.906 361.374 480.763 360.791 479.437 362.003 Z
M 479.38 369.811
C 479.623 373.527 479.375 377.239 480.101 380.947
C 481.36 387.377 484.422 393.298 486.289 399.522
C 487.497 399.165 489.753 397.106 490.524 396.083
C 488.876 392.935 487.706 389.804 486.444 386.48
C 485.515 384.031 484.177 381.91 483.992 379.246
C 484.041 379.247 485.054 379.14 485.267 379.436
C 486.574 381.255 487.45 384.654 488.2 386.791
C 491.551 387.583 496.053 386.995 499.503 386.856
C 501.033 386.794 503.041 387.068 504.501 386.644
C 506.049 384.332 505.886 380.513 507.888 378.556
C 510.065 378.583 508.468 381.574 508.043 382.752
C 506.429 387.228 504.481 391.584 503.046 396.127
C 503.719 397.22 505.651 398.633 506.713 399.448
C 507.33 399.388 507.408 398.106 507.578 397.614
C 508.148 395.966 508.827 394.354 509.388 392.705
C 511.342 386.959 513.322 381.254 513.647 375.148
C 513.729 373.602 514.157 371.308 513.714 369.834
C 510.22 369.468 506.522 369.782 503.003 369.766
C 495.129 369.732 487.244 369.78 479.38 369.811 Z
M 486.372 402.695
C 486.387 402.822 486.403 402.949 486.418 403.075
C 490.795 404.25 496.161 403.462 500.678 403.411
C 502.349 403.392 504.62 403.819 506.198 403.286
C 506.923 399.863 501.689 398.234 500.083 396.259
C 498.298 395.683 494.79 395.95 492.947 396.328
C 490.731 398.353 488.055 400.183 486.372 402.695 Z
M 489.65 388.593
C 489.429 388.637 489.208 388.682 488.986 388.726
C 489.666 390.782 491.018 392.56 491.677 394.558
C 492.256 395.029 494.059 394.332 494.861 394.302
C 497.326 394.209 499.056 394.604 501.313 395.21
C 501.982 394.57 502.111 393.391 502.415 392.537
C 502.875 391.245 503.546 390.079 503.921 388.754
C 502.76 388.125 501.348 388.624 500.094 388.652
C 497.839 388.703 495.559 388.716 493.304 388.688
C 492.129 388.674 490.793 388.331 489.65 388.593 Z"
opacity="1" fill="rgb(36,36,39)" fill-rule="evenodd" />
<path d="
M 483.491 217.62
C 484.071 213.56 483.598 209.097 483.586 204.998
C 483.564 197.331 483.587 189.663 483.576 181.996
C 483.569 177.366 482.273 171.281 487.973 169.975
C 488.467 169.301 488.285 167.954 488.54 167.129
C 489.077 165.391 489.863 163.588 490.713 161.98
C 491.495 161.555 492.623 161.849 493.511 161.849
C 495.924 161.847 499.223 161.107 501.483 162.079
C 503.387 163.819 504.432 166.974 505.035 169.424
C 505.788 169.74 506.639 169.908 507.327 170.362
C 511.423 173.063 510.21 178.446 510.175 182.651
C 510.094 192.207 510.125 201.776 510.186 211.333
C 510.215 215.804 511.337 221.238 507.574 224.549
C 504.942 226.865 501.233 226.32 497.994 226.256
C 492.781 226.152 485.602 227.392 483.689 220.847
C 483.383 219.799 483.424 218.698 483.491 217.62 Z
M 485.427 174.077
C 485.116 175.126 485.337 176.409 485.331 177.489
C 485.319 179.99 485.329 182.491 485.329 184.992
C 485.327 192.99 485.33 200.99 485.305 208.988
C 485.297 211.485 485.371 213.991 485.24 216.484
C 485.166 217.873 484.806 219.658 485.516 220.931
C 486.181 222.124 487.383 223.675 488.714 224.154
C 490.304 224.725 492.334 224.557 494.003 224.567
C 498.184 224.591 506.334 226.218 508.187 221.041
C 509.311 217.903 508.455 213.289 508.439 210.001
C 508.4 202.138 508.415 194.283 508.441 186.424
C 508.451 183.617 508.445 180.809 508.445 178.001
C 508.445 176.819 508.697 175.312 508.205 174.199
C 507.133 171.773 504.719 171.76 502.47 171.778
C 498.525 171.808 494.56 171.911 490.617 171.794
C 488.631 171.735 486.111 171.776 485.427 174.077 Z
M 489.968 169.095
C 489.855 169.718 489.928 169.388 489.737 170.083
C 490.792 170.465 492.645 170.104 493.793 170.098
C 496.888 170.084 500.358 170.463 503.4 169.868
C 503.303 167.765 501.749 165.333 500.501 163.774
C 497.769 163.302 494.694 163.827 491.908 163.682
C 490.68 165.375 490.393 167.113 489.968 169.095 Z"
opacity="1" fill="rgb(39,34,36)" fill-rule="evenodd" />
<path d="
M 485.986 610.099
C 486.002 609.884 486.019 609.67 486.035 609.455
C 486.934 609.251 487.913 609.218 488.839 609.282
C 488.855 608.175 488.812 607.075 489.032 605.981
C 489.953 601.411 493.898 601.518 497.669 601.711
C 497.995 602.7 498.103 603.611 498.338 604.61
C 496.733 604.108 494.547 604.116 493.114 605.047
C 492.359 606.305 492.368 607.646 492.366 609.076
C 493.562 609.708 496.393 609.227 497.71 609.087
C 497.651 610.079 497.636 611.19 497.66 612.179
C 496.091 612.497 494.272 611.778 492.635 611.926
C 492.022 613.333 492.279 614.979 492.277 616.488
C 492.271 619.909 491.468 624.556 492.388 627.851
C 491.243 627.74 490.047 627.783 488.901 627.856
C 488.371 626.895 488.746 624.819 488.736 623.714
C 488.701 620.007 489.502 615.398 488.695 611.792
C 487.784 611.764 486.856 611.851 485.947 611.919
C 485.925 611.311 485.931 610.705 485.986 610.099 Z"
opacity="1" fill="rgb(12,11,12)" fill-rule="evenodd" />
<path d="
M 487.407 375.98
C 488.746 374.814 492.718 375.361 494.486 375.41
C 495.044 375.426 496.388 375.301 496.804 375.695
C 497.042 375.922 496.876 376.573 496.819 376.831
C 494.717 376.972 492.612 376.878 490.506 376.89
C 489.571 376.895 488.357 377.077 487.496 376.657
C 487.466 376.431 487.437 376.205 487.407 375.98 Z"
opacity="0.996" fill="rgb(23,24,35)" fill-rule="evenodd" />
<path d="
M 488.944 535.108
C 489.988 529.319 492.208 523.667 496.586 519.532
C 505.042 511.545 519.772 510.974 528.382 518.935
C 532.996 523.201 534.985 529.158 535.606 535.27
C 535.824 537.415 535.503 539.681 535.821 541.796
C 527.224 541.551 518.602 541.752 510.001 541.701
C 506.076 541.678 501.169 540.836 497.351 541.729
C 497.486 543.531 497.796 545.562 498.477 547.255
C 501.91 555.798 510.816 558.484 519.364 556.995
C 523.926 556.201 527.038 553.831 531.033 551.863
C 531.795 553.408 532.517 554.978 533.369 556.477
C 533.644 556.961 534.352 557.731 534.302 558.32
C 522.104 566.654 503.045 567.942 493.222 555.106
C 491.616 553.008 490.465 550.587 489.81 548.027
C 488.744 543.862 488.415 539.376 488.944 535.108 Z
M 497.458 534.635
C 497.422 534.823 497.386 535.012 497.349 535.201
C 501.454 534.779 505.871 535.266 510.009 535.272
C 515.745 535.28 521.619 534.892 527.339 535.241
C 527.2 531.49 526.099 527.713 523.56 524.872
C 519.197 519.99 511.044 519.201 505.507 522.46
C 500.935 525.151 498.621 529.65 497.458 534.635 Z"
opacity="1" fill="rgb(1,1,3)" fill-rule="evenodd" />
<path d="
M 489.799 176.33
C 493.351 176.171 496.945 176.343 500.505 176.344
C 502.032 176.345 503.616 176.092 503.581 178.023
C 500.206 177.881 496.875 177.788 493.495 177.869
C 492.695 177.888 490.585 178.345 489.936 177.955
C 489.431 177.651 489.702 176.746 489.799 176.33 Z"
opacity="0.996" fill="rgb(27,34,46)" fill-rule="evenodd" />
<path d="
M 489.901 192.993
C 490.027 192.833 490.153 192.672 490.279 192.511
C 493.255 193.009 498.238 194.03 500.812 191.929
C 501.824 191.103 502.046 189.212 502.084 187.972
C 502.098 187.52 501.891 186.328 502.35 186.034
C 502.528 185.92 502.706 186.26 502.883 186.373
C 504.791 188.201 503.641 192.276 501.69 193.535
C 500.454 194.332 498.981 194.326 497.575 194.456
C 495.118 194.682 492.245 195.019 489.815 194.539
C 489.824 194.02 489.852 193.51 489.901 192.993 Z"
opacity="1" fill="rgb(27,26,33)" fill-rule="evenodd" />
<path d="
M 490.224 210.68
C 493.389 210.057 496.788 210.453 500.002 210.419
C 500.904 210.41 502.964 210.062 503.639 210.648
C 503.674 211.082 503.782 211.592 503.565 211.992
C 500.213 211.904 496.851 211.912 493.496 211.931
C 492.03 211.939 490.351 212.502 490.224 210.68 Z"
opacity="0.992" fill="rgb(19,18,32)" fill-rule="evenodd" />
<path d="
M 499.429 375.98
C 499.54 375.836 499.65 375.692 499.761 375.548
C 501.189 375.263 505.446 374.586 505.267 376.79
C 503.403 376.916 501.525 376.771 499.662 376.769
C 499.346 376.386 499.469 376.631 499.429 375.98 Z"
opacity="0.992" fill="rgb(48,49,63)" fill-rule="evenodd" />
<path d="
M 499.461 617.606
C 500.464 611.005 508.365 605.221 514.292 610.73
C 517.071 613.313 516.196 616.469 516.756 619.771
C 512.429 619.38 507.681 619.515 503.351 619.835
C 502.994 620.589 503.17 621.367 503.351 622.171
C 504.207 625.979 509.179 626.373 512.308 625.495
C 513.403 625.188 514.825 623.932 515.962 624.317
C 516.137 625.035 516.541 625.965 516.161 626.67
C 510.607 629.779 501.775 629.158 499.771 622.137
C 499.359 620.695 499.31 619.09 499.461 617.606 Z
M 503.431 615.562
C 503.324 616.114 503.194 616.66 503.071 617.209
C 505.525 617.452 508.035 617.372 510.503 617.346
C 511.41 617.336 512.706 617.595 513.524 617.187
C 514.387 613.667 510.312 610.675 507.154 611.508
C 505.012 612.073 504.215 613.676 503.431 615.562 Z"
opacity="1" fill="rgb(10,13,13)" fill-rule="evenodd" />
<path d="
M 502.169 198.21
C 502.35 198.216 503.276 198.05 503.485 198.477
C 504.118 199.775 503.904 203.334 503.662 204.793
C 503.226 204.93 502.906 204.805 502.466 204.772
C 501.662 203.031 502.079 200.099 502.169 198.21 Z"
opacity="1" fill="rgb(32,34,30)" fill-rule="evenodd" />
<path d="
M 521.286 609.269
C 522.273 609.327 524.182 608.764 524.992 609.395
C 524.99 610.002 525.034 610.607 525.058 611.214
C 526.008 611.446 526.583 610.115 527.337 609.657
C 528.807 608.763 530.975 608.683 532.598 609.115
C 532.595 610.381 532.444 611.578 532.3 612.835
C 530.863 613.612 529.147 611.266 527.442 612.131
C 525.132 613.303 524.86 615.566 524.939 617.863
C 525.053 621.206 525.208 624.558 525.232 627.904
C 524.175 628.101 522.934 627.865 521.852 627.919
C 521.091 626.548 521.591 623.789 521.586 622.228
C 521.571 617.953 521.801 613.517 521.286 609.269 Z"
opacity="1" fill="rgb(12,12,12)" fill-rule="evenodd" />
<path d="
M 534.418 616.584
C 534.976 614.284 536.422 611.537 538.418 610.149
C 541.389 608.085 546.514 608.198 549.125 610.779
C 551.783 613.404 551.262 616.464 551.811 619.775
C 548.6 619.459 545.238 619.775 542.011 619.769
C 540.764 619.766 539.134 619.515 538.039 620.179
C 538.194 621.06 538.201 622.07 538.607 622.889
C 541.042 627.813 546.872 625.081 550.63 624.267
C 550.869 625.135 550.867 625.856 550.548 626.711
C 549.246 628.19 546.558 628.269 544.735 628.331
C 542.641 628.403 540.15 628.301 538.311 627.182
C 534.868 625.086 533.654 620.366 534.418 616.584 Z
M 537.975 616.593
C 537.782 617.214 537.862 616.9 537.734 617.536
C 541.149 617.48 545.393 618.11 548.695 617.3
C 549.138 613.578 545.175 610.715 541.834 611.767
C 539.609 612.468 538.687 614.562 537.975 616.593 Z"
opacity="1" fill="rgb(10,13,13)" fill-rule="evenodd" />
<path d="
M 556.189 609.247
C 557.363 609.312 558.595 609.314 559.768 609.249
C 559.962 610.124 559.641 611.162 559.577 612.048
C 560.22 611.956 561.17 610.569 561.674 610.122
C 562.47 609.414 563.625 609.166 564.658 609.025
C 565.675 608.886 566.752 608.861 567.771 609
C 574.452 609.917 572.53 619.304 572.584 623.999
C 572.596 625.031 572.277 627.212 572.772 628.101
C 571.825 627.734 570.317 627.896 569.307 627.876
C 568.703 627.095 569.035 625.147 569.045 624.169
C 569.078 621.221 569.969 616.509 568.524 613.829
C 566.808 610.645 561.445 611.241 560.113 614.514
C 559.535 615.935 559.748 617.739 559.762 619.238
C 559.787 622.142 559.823 625.044 559.915 627.944
C 558.73 627.821 557.517 627.931 556.327 627.92
C 555.651 621.85 556.27 615.364 556.189 609.247 Z"
opacity="1" fill="rgb(12,12,14)" fill-rule="evenodd" />
<path d="
M 558.53 563.079
C 560.054 558.54 562.169 554.141 563.962 549.7
C 568.129 539.382 572.237 529.028 576.313 518.674
C 578.558 512.974 580.737 507.248 583.027 501.566
C 584.08 498.953 584.886 495.709 586.459 493.378
C 588.45 493.422 590.454 493.414 592.444 493.352
C 593.233 493.328 594.2 493.113 594.944 493.393
C 596.75 498.888 599.293 504.202 601.296 509.636
C 605.458 520.929 609.686 532.2 613.946 543.455
C 616.461 550.099 619.668 556.865 621.342 563.772
C 618.394 563.619 614.608 564.342 611.791 563.641
C 610.696 559.685 609.074 555.717 607.579 551.894
C 606.98 550.364 606.645 548.116 605.463 546.938
C 597.801 546.308 589.918 546.863 582.234 546.922
C 580.289 546.937 578.29 546.823 576.355 547.029
C 575.478 547.123 574.906 546.779 574.182 547.428
C 571.243 552.217 570.07 558.42 567.899 563.587
C 567.267 563.962 565.742 563.673 564.999 563.672
C 562.734 563.667 560.451 563.78 558.193 563.712
C 558.305 563.501 558.417 563.29 558.53 563.079 Z
M 577.929 538.063
C 577.707 538.693 577.82 538.354 577.594 539.081
C 580.898 539.645 584.652 539.219 588.008 539.224
C 592.856 539.231 598.059 539.64 602.87 539.082
C 603.089 538.822 602.315 537.459 602.205 537.09
C 601.613 535.113 600.828 533.167 600.108 531.232
C 597.76 524.917 595.432 518.524 592.8 512.322
C 591.889 510.174 591.482 507.083 590.15 505.252
C 589.062 509.746 586.932 514.148 585.292 518.475
C 582.821 524.995 580.517 531.589 577.929 538.063 Z"
opacity="1" fill="rgb(1,1,3)" fill-rule="evenodd" />
<path d="
M 576.975 617.607
C 577.334 615.518 577.863 613.514 579.266 611.861
C 582.077 608.547 588.312 607.685 591.766 610.506
C 592.146 611.479 591.966 613.065 591.31 613.897
C 590.537 613.22 589.371 612.497 588.41 612.136
C 579.206 608.678 577.25 626.108 586.612 625.789
C 588.466 625.725 589.954 624.819 591.601 624.067
C 592.155 624.72 592.403 625.929 592.226 626.78
C 586.914 629.711 578.96 628.868 577.25 622.132
C 576.879 620.669 576.809 619.103 576.975 617.607 Z"
opacity="1" fill="rgb(10,12,12)" fill-rule="evenodd" />
<path d="
M 595.447 616.593
C 595.88 614.442 596.564 612.271 598.297 610.786
C 601.351 608.169 607.628 607.988 610.494 610.947
C 612.814 613.342 612.556 616.914 612.356 619.919
C 609.525 620.405 606.202 619.869 603.32 619.878
C 601.895 619.883 600.229 619.697 599.025 620.521
C 599.099 621.37 599.098 622.221 599.43 623.024
C 601.491 628.018 608.281 625.315 611.649 624.135
C 611.99 624.917 611.961 625.623 611.88 626.456
C 610.878 628.049 607.868 628.303 606.182 628.5
C 598.809 629.36 594.188 623.741 595.447 616.593 Z
M 598.932 617.09
C 598.897 617.292 598.862 617.494 598.828 617.696
C 601.95 617.817 606.37 618.364 609.357 617.395
C 610.036 613.097 605.332 610.068 601.536 612.058
C 599.581 613.083 599.423 615.215 598.932 617.09 Z"
opacity="1" fill="rgb(7,11,10)" fill-rule="evenodd" />
<path d="
M 616.487 613.594
C 617.963 607.641 626.204 608.381 630.592 610.3
C 631.185 611.018 630.532 612.55 630.298 613.36
C 629.612 613.319 629.162 612.683 628.544 612.451
C 626.658 611.743 624.009 611.358 622.061 611.954
C 620.245 612.508 618.842 614.777 620.349 616.443
C 623.151 618.756 627.615 617.02 630.298 619.96
C 632.661 622.549 631.216 626.5 628.213 627.752
C 624.524 629.289 620.584 628.213 616.849 627.602
C 616.439 626.478 616.699 625.291 616.772 624.132
C 619.608 625.221 621.68 626.179 624.833 625.878
C 626.325 625.735 627.977 625.04 628.293 623.436
C 628.1 620.951 624.729 620.588 622.776 620.29
C 618.86 619.692 616.051 617.985 616.487 613.594 Z"
opacity="0.996" fill="rgb(10,12,12)" fill-rule="evenodd" />
<path d="
M 627.817 514.249
C 630.505 513.804 633.259 514.254 635.968 514.185
C 636.326 516.305 636.162 518.449 636.367 520.585
C 637.345 519.88 637.981 518.766 638.947 518.007
C 642.068 515.552 646.197 513.849 650.146 513.447
C 653.071 513.149 656.004 513.352 658.855 514.054
C 676.186 518.324 678.474 543.466 669.801 556.231
C 664.517 564.007 653.837 566.199 645.159 564.074
C 643.086 563.566 640.764 562.779 638.999 561.55
C 638.492 561.197 636.326 559.009 635.991 559.204
C 636.536 565.716 636.104 572.452 636.088 579
C 636.082 581.523 635.814 584.237 636.147 586.737
C 633.391 586.519 630.576 586.9 627.832 586.629
C 628.058 579.445 627.71 572.198 627.731 565.006
C 627.781 548.086 627.829 531.168 627.817 514.249 Z
M 635.949 534.097
C 634.971 540.583 635.184 549.441 640.226 554.282
C 645.556 559.398 654.794 558.367 660.179 553.976
C 663.216 551.501 665.104 547.409 665.734 543.613
C 666.864 536.797 665.893 527.871 659.968 523.376
C 650.695 516.343 637.581 523.274 635.949 534.097 Z"
opacity="1" fill="rgb(1,1,3)" fill-rule="evenodd" />
<path d="
M 683.32 514.267
C 686.049 514.229 688.813 514.072 691.541 514.226
C 691.771 516.281 691.636 518.385 691.648 520.458
C 691.705 521.112 693.137 519.188 693.39 518.918
C 694.516 517.72 695.909 516.815 697.373 516.081
C 702.063 513.729 707.228 512.748 712.453 513.517
C 725.183 515.39 730.398 528.058 730.314 539.61
C 730.229 551.361 724.047 562.925 711.487 564.69
C 709.127 565.022 706.614 565.115 704.249 564.805
C 701.151 564.401 698.306 563.527 695.569 561.999
C 694.64 561.481 693.702 560.794 692.927 560.065
C 692.556 559.717 692.261 558.733 691.831 559.004
C 691.63 559.131 691.784 560.317 691.806 560.551
C 691.953 562.172 691.789 563.866 691.789 565.497
C 691.786 572.53 691.572 579.644 691.827 586.668
C 689.09 586.819 686.332 586.596 683.593 586.723
C 682.885 579.983 683.42 572.747 683.427 565.954
C 683.444 548.786 684.139 531.419 683.32 514.267 Z
M 691.455 535.113
C 690.933 541.805 690.795 549.457 696.11 554.393
C 701.756 559.636 711.855 558.502 716.904 553.054
C 719.862 549.861 721.11 545.388 721.459 541.148
C 721.98 534.815 720.743 527.187 715.279 523.172
C 705.655 516.099 692.32 524.006 691.455 535.113 Z"
opacity="1" fill="rgb(1,1,3)" fill-rule="evenodd" />

</svg>